<?xml version="1.0" encoding="UTF-8" standalone="no"?>
<!-- Created with Inkscape (http://www.inkscape.org/) -->

<svg
   xmlns:dc="http://purl.org/dc/elements/1.1/"
   xmlns:cc="http://creativecommons.org/ns#"
   xmlns:rdf="http://www.w3.org/1999/02/22-rdf-syntax-ns#"
   xmlns:svg="http://www.w3.org/2000/svg"
   xmlns="http://www.w3.org/2000/svg"
   xmlns:xlink="http://www.w3.org/1999/xlink"
   xmlns:sodipodi="http://sodipodi.sourceforge.net/DTD/sodipodi-0.dtd"
   xmlns:inkscape="http://www.inkscape.org/namespaces/inkscape"
   id="svg4581"
   sodipodi:docname="airliner.svg"
   viewBox="0 0 512.62817 177.33349"
   version="1.1"
   inkscape:version="0.92.4 (5da689c313, 2019-01-14)"
   width="512.62817"
   height="177.3335"
   style="enable-background:new">
  <defs
     id="defs4583">
    <linearGradient
       id="linearGradient7978">
      <stop
         id="stop7980"
         style="stop-color:#ff2727"
         offset="0" />
      <stop
         id="stop7982"
         style="stop-color:#800000"
         offset="1" />
    </linearGradient>
    <linearGradient
       id="linearGradient7746">
      <stop
         id="stop7748"
         style="stop-color:#333333"
         offset="0" />
      <stop
         id="stop7750"
         style="stop-color:#919191"
         offset="1" />
    </linearGradient>
    <linearGradient
       id="linearGradient7732">
      <stop
         id="stop7734"
         style="stop-color:#000000"
         offset="0" />
      <stop
         id="stop7736"
         style="stop-color:#000000;stop-opacity:0"
         offset="1" />
    </linearGradient>
    <linearGradient
       id="linearGradient4651">
      <stop
         id="stop4653"
         style="stop-color:#e6e6e6"
         offset="0" />
      <stop
         id="stop4655"
         style="stop-color:#414141"
         offset="1" />
    </linearGradient>
    <linearGradient
       id="linearGradient4626"
       inkscape:collect="always">
      <stop
         id="stop4628"
         style="stop-color:#5e5e5e"
         offset="0" />
      <stop
         id="stop4630"
         style="stop-color:#a2a2a2"
         offset="1" />
    </linearGradient>
    <linearGradient
       id="linearGradient4618"
       inkscape:collect="always">
      <stop
         id="stop4620"
         style="stop-color:#333333"
         offset="0" />
      <stop
         id="stop4622"
         style="stop-color:#b3b3b3"
         offset="1" />
    </linearGradient>
    <linearGradient
       id="linearGradient7730"
       y2="433.72"
       xlink:href="#linearGradient7732"
       gradientUnits="userSpaceOnUse"
       x2="263.56"
       gradientTransform="matrix(-1,0,0,1.0335,600.996,-15.498928)"
       y1="474.57001"
       x1="263.92001"
       inkscape:collect="always" />
    <linearGradient
       id="linearGradient7753"
       y2="437.94"
       xlink:href="#linearGradient7746"
       gradientUnits="userSpaceOnUse"
       x2="246.22"
       gradientTransform="matrix(-1,0,0,0.99341,600.996,2.3847724)"
       y1="455.60001"
       x1="246.48"
       inkscape:collect="always" />
    <linearGradient
       id="linearGradient7898"
       y2="361.92001"
       gradientUnits="userSpaceOnUse"
       x2="571.23999"
       y1="346.26999"
       x1="535.38"
       inkscape:collect="always"
       gradientTransform="translate(-0.80416,-0.00392757)">
      <stop
         id="stop4661"
         style="stop-color:#dedfdf"
         offset="0" />
      <stop
         id="stop4663"
         style="stop-color:#808b91"
         offset="1" />
    </linearGradient>
    <linearGradient
       id="linearGradient7901"
       y2="483.23865"
       xlink:href="#linearGradient4651"
       gradientUnits="userSpaceOnUse"
       x2="365.3418"
       y1="347.86145"
       x1="450.6265"
       inkscape:collect="always"
       gradientTransform="translate(-0.80416,-0.00392757)" />
    <linearGradient
       id="linearGradient7908"
       y2="435.39001"
       xlink:href="#linearGradient4618"
       gradientUnits="userSpaceOnUse"
       x2="264.10999"
       gradientTransform="matrix(-1,0,0,1,600.996,-0.48281757)"
       y1="461.10999"
       x1="264.10999"
       inkscape:collect="always" />
    <linearGradient
       id="linearGradient7911"
       y2="442.35999"
       xlink:href="#linearGradient4626"
       gradientUnits="userSpaceOnUse"
       x2="292.04999"
       gradientTransform="matrix(-1,0,0,1,601.1854,-0.53965757)"
       y1="454.42001"
       x1="292.04999"
       inkscape:collect="always" />
    <filter
       id="filter7955"
       inkscape:collect="always">
      <feBlend
         id="feBlend7957"
         in2="BackgroundImage"
         mode="darken"
         inkscape:collect="always" />
    </filter>
    <linearGradient
       id="linearGradient7965"
       y2="450.29001"
       xlink:href="#linearGradient4651"
       gradientUnits="userSpaceOnUse"
       x2="300.28"
       y1="433.51001"
       x1="299.73001"
       inkscape:collect="always"
       gradientTransform="translate(-0.80416,-0.00392757)" />
    <linearGradient
       id="linearGradient7984"
       y2="36.669998"
       xlink:href="#linearGradient7978"
       gradientUnits="userSpaceOnUse"
       x2="493.70999"
       y1="24.801001"
       x1="421.48999"
       inkscape:collect="always"
       gradientTransform="translate(99.49584,291.74607)" />
    <linearGradient
       id="linearGradient7992"
       y2="407.13"
       xlink:href="#linearGradient7978"
       gradientUnits="userSpaceOnUse"
       x2="446.48999"
       y1="407.13"
       x1="421.73999"
       inkscape:collect="always"
       gradientTransform="translate(-0.80416,-0.00392757)" />
    <linearGradient
       inkscape:collect="always"
       xlink:href="#linearGradient4626"
       id="linearGradient1007"
       gradientUnits="userSpaceOnUse"
       gradientTransform="matrix(-1,0,0,1,712.6134,-0.53965757)"
       x1="292.04999"
       y1="454.42001"
       x2="292.04999"
       y2="442.35999" />
    <linearGradient
       inkscape:collect="always"
       xlink:href="#linearGradient4618"
       id="linearGradient1009"
       gradientUnits="userSpaceOnUse"
       gradientTransform="matrix(-1,0,0,1,712.424,-0.48281757)"
       x1="264.10999"
       y1="461.10999"
       x2="264.10999"
       y2="435.39001" />
    <linearGradient
       inkscape:collect="always"
       xlink:href="#linearGradient7732"
       id="linearGradient1011"
       gradientUnits="userSpaceOnUse"
       gradientTransform="matrix(-1,0,0,1.0335,712.424,-15.498928)"
       x1="263.92001"
       y1="474.57001"
       x2="263.56"
       y2="433.72" />
    <linearGradient
       inkscape:collect="always"
       xlink:href="#linearGradient7746"
       id="linearGradient1013"
       gradientUnits="userSpaceOnUse"
       gradientTransform="matrix(-1,0,0,0.99341,712.424,2.3847724)"
       x1="246.48"
       y1="455.60001"
       x2="246.22"
       y2="437.94" />
  </defs>
  <sodipodi:namedview
     id="base"
     bordercolor="#666666"
     inkscape:pageshadow="2"
     inkscape:window-y="-8"
     fit-margin-left="3"
     pagecolor="#ffffff"
     inkscape:window-height="1017"
     inkscape:window-maximized="1"
     inkscape:zoom="2.4329258"
     inkscape:window-x="-8"
     showgrid="false"
     borderopacity="1.0"
     inkscape:current-layer="layer2"
     inkscape:cx="275.58506"
     inkscape:cy="34.90858"
     fit-margin-top="3"
     fit-margin-right="3"
     fit-margin-bottom="3"
     inkscape:window-width="1920"
     inkscape:pageopacity="0.0"
     inkscape:document-units="px" />
  <g
     id="layer2"
     style="filter:url(#filter7955)"
     inkscape:label="Layer"
     inkscape:groupmode="layer"
     transform="translate(-99.49584,-291.74607)">
    <rect
       x="-352.70984"
       y="450.13"
       width="2.7679"
       height="12.362"
       ry="1.3257999"
       rx="1.3257999"
       style="fill:#333333"
       id="rect7706"
       transform="scale(-1,1)" />
    <rect
       x="-269.49985"
       y="398.41"
       width="7.9039001"
       height="10.761"
       ry="1.3257999"
       rx="1.3257999"
       style="fill:none;stroke:#000000;stroke-width:0.25321999"
       id="rect7700"
       transform="scale(-1,1)" />
    <rect
       x="-565.09985"
       y="452.26999"
       width="2.7679"
       height="10.089"
       ry="1.3257999"
       rx="1.3257999"
       style="fill:#333333"
       id="rect7704"
       transform="scale(-1,1)" />
    <path
       inkscape:connector-curvature="0"
       style="fill:url(#linearGradient7901);fill-opacity:1"
       sodipodi:nodetypes="zsscssz"
       d="m 607.56984,436.17 c -9.171,7.9254 -23.234,13.132 -45.962,13.132 -48.487,0 -235.37,7.5762 -296.98,-1.0102 -24.634,-3.4326 -146.24,-30.426 -149.5,-35.355 6.8383,-8.465 16.668,-13.637 103.54,-19.193 86.216,-5.5138 297.49,-7.0711 331.84,0 32.889,6.7713 66.245,34.501 57.074,42.426 z"
       id="path4601" />
    <path
       inkscape:connector-curvature="0"
       style="fill:#b3b3b3"
       sodipodi:nodetypes="ccc"
       d="m 199.34984,412.83 -96.786,-9.4643 c 21.833,-3.4045 81.616,1.6577 96.786,9.4643 z"
       id="path7971" />
    <path
       inkscape:connector-curvature="0"
       style="fill:url(#linearGradient7898)"
       d="m 240.51984,392.54 c 0,0 -18.317,-4.3531 -21.852,-8.3937 -3.5355,-4.0406 -78.287,-89.904 -81.822,-89.398 -3.5355,0.50508 -29.8,1.0102 -29.8,1.0102 l 46.21,103.79 c 26.659,-3.1219 55.886,-5.236 87.26,-7.0111 z"
       sodipodi:nodetypes="cssccc"
       id="path4603" />
    <path
       inkscape:connector-curvature="0"
       style="fill:url(#linearGradient7965)"
       sodipodi:nodetypes="cscccsc"
       d="m 500.99984,446.27 c 1.4935,-3.1701 -0.25253,-7.3236 -4.2931,-9.5964 -4.04057,-2.2728 -200.82,2.5427 -200.82,2.5427 l -6.6942,6.2185 27.791,3.0753 c 0,0 144.9,5.98 164.83,3.0633 10.354,-1.5152 12.576,-0.81414 19.193,-5.3033 z"
       id="path4675" />
    <g
       transform="matrix(-1,0,0,1,585.09984,0.25254)"
       id="g4812">
      <rect
         x="199.85001"
         y="418.48999"
         width="2.6517"
         height="3.5355"
         ry="1.3257999"
         rx="1.3257999"
         style="fill:#808080"
         id="rect4814" />
      <rect
         x="195.78"
         y="418.48999"
         width="2.6517"
         height="3.5355"
         ry="1.3257999"
         rx="1.3257999"
         style="fill:#808080"
         id="rect4816" />
      <rect
         x="191.71001"
         y="418.48999"
         width="2.6517"
         height="3.5355"
         ry="1.3257999"
         rx="1.3257999"
         style="fill:#808080"
         id="rect4818" />
      <rect
         x="187.64"
         y="418.48999"
         width="2.6517"
         height="3.5355"
         ry="1.3257999"
         rx="1.3257999"
         style="fill:#808080"
         id="rect4820" />
      <rect
         x="183.56"
         y="418.48999"
         width="2.6517"
         height="3.5355"
         ry="1.3257999"
         rx="1.3257999"
         style="fill:#808080"
         id="rect4822" />
      <rect
         x="179.49001"
         y="418.48999"
         width="2.6517"
         height="3.5355"
         ry="1.3257999"
         rx="1.3257999"
         style="fill:#808080"
         id="rect4824" />
      <rect
         x="175.42"
         y="418.48999"
         width="2.6517"
         height="3.5355"
         ry="1.3257999"
         rx="1.3257999"
         style="fill:#808080"
         id="rect4826" />
      <rect
         x="171.35001"
         y="418.48999"
         width="2.6517"
         height="3.5355"
         ry="1.3257999"
         rx="1.3257999"
         style="fill:#808080"
         id="rect4828" />
      <rect
         x="167.27"
         y="418.48999"
         width="2.6517"
         height="3.5355"
         ry="1.3257999"
         rx="1.3257999"
         style="fill:#808080"
         id="rect4830" />
      <rect
         x="163.2"
         y="418.48999"
         width="2.6517"
         height="3.5355"
         ry="1.3257999"
         rx="1.3257999"
         style="fill:#808080"
         id="rect4832" />
      <rect
         x="159.13"
         y="418.48999"
         width="2.6517"
         height="3.5355"
         ry="1.3257999"
         rx="1.3257999"
         style="fill:#808080"
         id="rect4834" />
      <rect
         x="155.06"
         y="418.48999"
         width="2.6517"
         height="3.5355"
         ry="1.3257999"
         rx="1.3257999"
         style="fill:#808080"
         id="rect4836" />
      <rect
         x="203.92"
         y="418.48999"
         width="2.6517"
         height="3.5355"
         ry="1.3257999"
         rx="1.3257999"
         style="fill:#808080"
         id="rect4838" />
    </g>
    <path
       inkscape:connector-curvature="0"
       style="fill:#43484c"
       d="m 487.60984,438.25 -178.29,-28.284 h -34.85 l 91.419,34.345 z"
       id="path4607" />
    <path
       inkscape:connector-curvature="0"
       style="fill:url(#linearGradient7992)"
       d="m 289.87984,409.91 -12.627,8.0812 h -6.0609 l 2.5254,-9.0914 -8.5863,-12.627 h 7.0711 z"
       id="path4609" />
    <path
       inkscape:connector-curvature="0"
       style="fill:#1a1a1a"
       sodipodi:nodetypes="cccc"
       d="m 487.48984,438.19 -33.966,17.551 0.63135,-15.871 z"
       id="path7914" />
    <path
       inkscape:connector-curvature="0"
       style="fill:#666666"
       d="m 595.19984,418.11 h -14.395 l 1.389,-4.672 h 7.3236 c 0,0 3.0305,0.75761 4.2932,2.2728 1.2627,1.51519 1.389,2.3991 1.389,2.3991 z"
       id="path4667" />
    <circle
       r="4.6719556"
       cy="461.29666"
       cx="-563.88501"
       style="fill:#000000"
       id="path4669"
       transform="scale(-1,1)" />
    <path
       inkscape:radius="-2.0508895"
       inkscape:original="M 147.75 456.625 C 145.16975 456.625 143.0625 458.701 143.0625 461.28125 C 143.0625 463.8615 145.16975 465.96875 147.75 465.96875 C 150.33025 465.96875 152.40625 463.8615 152.40625 461.28125 C 152.40625 458.701 150.33025 456.625 147.75 456.625 z "
       d="m 147.75,458.67578 c -1.48019,0 -2.63672,1.14184 -2.63672,2.60547 0,1.46363 1.17309,2.63672 2.63672,2.63672 1.46363,0 2.60547,-1.15653 2.60547,-2.63672 0,-1.48019 -1.12528,-2.60547 -2.60547,-2.60547 z"
       sodipodi:type="inkscape:offset"
       style="fill:#b3b3b3"
       id="path4673"
       transform="matrix(-1,0,0,1,711.61984,0)" />
    <rect
       x="-385.66983"
       y="451.14999"
       width="4.1669002"
       height="11.238"
       ry="1.3257999"
       rx="1.3257999"
       style="fill:#414141"
       id="rect7967"
       transform="scale(-1,1)" />
    <g
       transform="matrix(-1,0,0,1,537.20984,0.11095)"
       id="g4685">
      <circle
         r="4.6719556"
         cy="461.29666"
         cx="147.73482"
         style="fill:#000000"
         id="path4687" />
      <path
         inkscape:radius="-2.0508895"
         inkscape:original="M 147.75 456.625 C 145.16975 456.625 143.0625 458.701 143.0625 461.28125 C 143.0625 463.8615 145.16975 465.96875 147.75 465.96875 C 150.33025 465.96875 152.40625 463.8615 152.40625 461.28125 C 152.40625 458.701 150.33025 456.625 147.75 456.625 z "
         d="m 147.75,458.67578 c -1.48019,0 -2.63672,1.14184 -2.63672,2.60547 0,1.46363 1.17309,2.63672 2.63672,2.63672 1.46363,0 2.60547,-1.15653 2.60547,-2.63672 0,-1.48019 -1.12528,-2.60547 -2.60547,-2.60547 z"
         sodipodi:type="inkscape:offset"
         style="fill:#b3b3b3"
         id="path4689" />
    </g>
    <g
       transform="matrix(-1,0,0,1,525.95984,0.11095)"
       id="g4691">
      <circle
         r="4.6719556"
         cy="461.29666"
         cx="147.73482"
         style="fill:#000000"
         id="path4693" />
      <path
         inkscape:radius="-2.0508895"
         inkscape:original="M 147.75 456.625 C 145.16975 456.625 143.0625 458.701 143.0625 461.28125 C 143.0625 463.8615 145.16975 465.96875 147.75 465.96875 C 150.33025 465.96875 152.40625 463.8615 152.40625 461.28125 C 152.40625 458.701 150.33025 456.625 147.75 456.625 z "
         d="m 147.75,458.67578 c -1.48019,0 -2.63672,1.14184 -2.63672,2.60547 0,1.46363 1.17309,2.63672 2.63672,2.63672 1.46363,0 2.60547,-1.15653 2.60547,-2.63672 0,-1.48019 -1.12528,-2.60547 -2.60547,-2.60547 z"
         sodipodi:type="inkscape:offset"
         style="fill:#b3b3b3"
         id="path4695" />
    </g>
    <rect
       x="459.97"
       y="337.94983"
       width="2.7679"
       height="25.242001"
       transform="matrix(0,1,1,0,0,0)"
       rx="1.3257999"
       style="fill:#333333"
       ry="1.3257999"
       id="rect7969" />
    <g
       transform="matrix(-1,0,0,1,510.06984,0.11095)"
       id="g4697">
      <circle
         r="4.6719556"
         cy="461.29666"
         cx="147.73482"
         style="fill:#000000"
         id="path4699" />
      <path
         inkscape:radius="-2.0508895"
         inkscape:original="M 147.75 456.625 C 145.16975 456.625 143.0625 458.701 143.0625 461.28125 C 143.0625 463.8615 145.16975 465.96875 147.75 465.96875 C 150.33025 465.96875 152.40625 463.8615 152.40625 461.28125 C 152.40625 458.701 150.33025 456.625 147.75 456.625 z "
         d="m 147.75,458.67578 c -1.48019,0 -2.63672,1.14184 -2.63672,2.60547 0,1.46363 1.17309,2.63672 2.63672,2.63672 1.46363,0 2.60547,-1.15653 2.60547,-2.63672 0,-1.48019 -1.12528,-2.60547 -2.60547,-2.60547 z"
         sodipodi:type="inkscape:offset"
         style="fill:#b3b3b3"
         id="path4701" />
    </g>
    <g
       transform="matrix(-1,0,0,1,498.99984,0.11095)"
       id="g4703">
      <circle
         r="4.6719556"
         cy="461.29666"
         cx="147.73482"
         style="fill:#000000"
         id="path4705" />
      <path
         inkscape:radius="-2.0508895"
         inkscape:original="M 147.75 456.625 C 145.16975 456.625 143.0625 458.701 143.0625 461.28125 C 143.0625 463.8615 145.16975 465.96875 147.75 465.96875 C 150.33025 465.96875 152.40625 463.8615 152.40625 461.28125 C 152.40625 458.701 150.33025 456.625 147.75 456.625 z "
         d="m 147.75,458.67578 c -1.48019,0 -2.63672,1.14184 -2.63672,2.60547 0,1.46363 1.17309,2.63672 2.63672,2.63672 1.46363,0 2.60547,-1.15653 2.60547,-2.63672 0,-1.48019 -1.12528,-2.60547 -2.60547,-2.60547 z"
         sodipodi:type="inkscape:offset"
         style="fill:#b3b3b3"
         id="path4707" />
    </g>
    <g
       transform="matrix(-1,0,0,1,487.38984,0.11095)"
       id="g4709">
      <circle
         r="4.6719556"
         cy="461.29666"
         cx="147.73482"
         style="fill:#000000"
         id="path4711" />
      <path
         inkscape:radius="-2.0508895"
         inkscape:original="M 147.75 456.625 C 145.16975 456.625 143.0625 458.701 143.0625 461.28125 C 143.0625 463.8615 145.16975 465.96875 147.75 465.96875 C 150.33025 465.96875 152.40625 463.8615 152.40625 461.28125 C 152.40625 458.701 150.33025 456.625 147.75 456.625 z "
         d="m 147.75,458.67578 c -1.48019,0 -2.63672,1.14184 -2.63672,2.60547 0,1.46363 1.17309,2.63672 2.63672,2.63672 1.46363,0 2.60547,-1.15653 2.60547,-2.63672 0,-1.48019 -1.12528,-2.60547 -2.60547,-2.60547 z"
         sodipodi:type="inkscape:offset"
         style="fill:#b3b3b3"
         id="path4713" />
    </g>
    <g
       id="g4741"
       transform="matrix(-1,0,0,1,711.61984,0)">
      <rect
         x="199.85001"
         y="418.48999"
         width="2.6517"
         height="3.5355"
         ry="1.3257999"
         rx="1.3257999"
         style="fill:#808080"
         id="rect4715" />
      <rect
         x="195.78"
         y="418.48999"
         width="2.6517"
         height="3.5355"
         ry="1.3257999"
         rx="1.3257999"
         style="fill:#808080"
         id="rect4717" />
      <rect
         x="191.71001"
         y="418.48999"
         width="2.6517"
         height="3.5355"
         ry="1.3257999"
         rx="1.3257999"
         style="fill:#808080"
         id="rect4719" />
      <rect
         x="187.64"
         y="418.48999"
         width="2.6517"
         height="3.5355"
         ry="1.3257999"
         rx="1.3257999"
         style="fill:#808080"
         id="rect4721" />
      <rect
         x="183.56"
         y="418.48999"
         width="2.6517"
         height="3.5355"
         ry="1.3257999"
         rx="1.3257999"
         style="fill:#808080"
         id="rect4723" />
      <rect
         x="179.49001"
         y="418.48999"
         width="2.6517"
         height="3.5355"
         ry="1.3257999"
         rx="1.3257999"
         style="fill:#808080"
         id="rect4725" />
      <rect
         x="175.42"
         y="418.48999"
         width="2.6517"
         height="3.5355"
         ry="1.3257999"
         rx="1.3257999"
         style="fill:#808080"
         id="rect4727" />
      <rect
         x="171.35001"
         y="418.48999"
         width="2.6517"
         height="3.5355"
         ry="1.3257999"
         rx="1.3257999"
         style="fill:#808080"
         id="rect4729" />
      <rect
         x="167.27"
         y="418.48999"
         width="2.6517"
         height="3.5355"
         ry="1.3257999"
         rx="1.3257999"
         style="fill:#808080"
         id="rect4731" />
      <rect
         x="163.2"
         y="418.48999"
         width="2.6517"
         height="3.5355"
         ry="1.3257999"
         rx="1.3257999"
         style="fill:#808080"
         id="rect4733" />
      <rect
         x="159.13"
         y="418.48999"
         width="2.6517"
         height="3.5355"
         ry="1.3257999"
         rx="1.3257999"
         style="fill:#808080"
         id="rect4735" />
      <rect
         x="155.06"
         y="418.48999"
         width="2.6517"
         height="3.5355"
         ry="1.3257999"
         rx="1.3257999"
         style="fill:#808080"
         id="rect4737" />
      <rect
         x="203.92"
         y="418.48999"
         width="2.6517"
         height="3.5355"
         ry="1.3257999"
         rx="1.3257999"
         style="fill:#808080"
         id="rect4739" />
    </g>
    <g
       transform="matrix(-1,0,0,1,681.06284,-17.678)"
       id="g4756">
      <rect
         x="199.85001"
         y="418.48999"
         width="2.6517"
         height="3.5355"
         ry="1.3257999"
         rx="1.3257999"
         style="fill:#808080"
         id="rect4758" />
      <rect
         x="195.78"
         y="418.48999"
         width="2.6517"
         height="3.5355"
         ry="1.3257999"
         rx="1.3257999"
         style="fill:#808080"
         id="rect4760" />
      <rect
         x="191.71001"
         y="418.48999"
         width="2.6517"
         height="3.5355"
         ry="1.3257999"
         rx="1.3257999"
         style="fill:#808080"
         id="rect4762" />
      <rect
         x="187.64"
         y="418.48999"
         width="2.6517"
         height="3.5355"
         ry="1.3257999"
         rx="1.3257999"
         style="fill:#808080"
         id="rect4764" />
      <rect
         x="183.56"
         y="418.48999"
         width="2.6517"
         height="3.5355"
         ry="1.3257999"
         rx="1.3257999"
         style="fill:#808080"
         id="rect4766" />
      <rect
         x="179.49001"
         y="418.48999"
         width="2.6517"
         height="3.5355"
         ry="1.3257999"
         rx="1.3257999"
         style="fill:#808080"
         id="rect4768" />
      <rect
         x="175.42"
         y="418.48999"
         width="2.6517"
         height="3.5355"
         ry="1.3257999"
         rx="1.3257999"
         style="fill:#808080"
         id="rect4770" />
      <rect
         x="171.35001"
         y="418.48999"
         width="2.6517"
         height="3.5355"
         ry="1.3257999"
         rx="1.3257999"
         style="fill:#808080"
         id="rect4772" />
      <rect
         x="167.27"
         y="418.48999"
         width="2.6517"
         height="3.5355"
         ry="1.3257999"
         rx="1.3257999"
         style="fill:#808080"
         id="rect4774" />
      <rect
         x="163.2"
         y="418.48999"
         width="2.6517"
         height="3.5355"
         ry="1.3257999"
         rx="1.3257999"
         style="fill:#808080"
         id="rect4776" />
      <rect
         x="159.13"
         y="418.48999"
         width="2.6517"
         height="3.5355"
         ry="1.3257999"
         rx="1.3257999"
         style="fill:#808080"
         id="rect4778" />
      <rect
         x="155.06"
         y="418.48999"
         width="2.6517"
         height="3.5355"
         ry="1.3257999"
         rx="1.3257999"
         style="fill:#808080"
         id="rect4780" />
      <rect
         x="203.92"
         y="418.48999"
         width="2.6517"
         height="3.5355"
         ry="1.3257999"
         rx="1.3257999"
         style="fill:#808080"
         id="rect4782" />
    </g>
    <g
       transform="matrix(-1,0,0,1,641.16184,0.25254)"
       id="g4784">
      <rect
         x="199.85001"
         y="418.48999"
         width="2.6517"
         height="3.5355"
         ry="1.3257999"
         rx="1.3257999"
         style="fill:#808080"
         id="rect4786" />
      <rect
         x="195.78"
         y="418.48999"
         width="2.6517"
         height="3.5355"
         ry="1.3257999"
         rx="1.3257999"
         style="fill:#808080"
         id="rect4788" />
      <rect
         x="191.71001"
         y="418.48999"
         width="2.6517"
         height="3.5355"
         ry="1.3257999"
         rx="1.3257999"
         style="fill:#808080"
         id="rect4790" />
      <rect
         x="187.64"
         y="418.48999"
         width="2.6517"
         height="3.5355"
         ry="1.3257999"
         rx="1.3257999"
         style="fill:#808080"
         id="rect4792" />
      <rect
         x="183.56"
         y="418.48999"
         width="2.6517"
         height="3.5355"
         ry="1.3257999"
         rx="1.3257999"
         style="fill:#808080"
         id="rect4794" />
      <rect
         x="179.49001"
         y="418.48999"
         width="2.6517"
         height="3.5355"
         ry="1.3257999"
         rx="1.3257999"
         style="fill:#808080"
         id="rect4796" />
      <rect
         x="175.42"
         y="418.48999"
         width="2.6517"
         height="3.5355"
         ry="1.3257999"
         rx="1.3257999"
         style="fill:#808080"
         id="rect4798" />
      <rect
         x="171.35001"
         y="418.48999"
         width="2.6517"
         height="3.5355"
         ry="1.3257999"
         rx="1.3257999"
         style="fill:#808080"
         id="rect4800" />
      <rect
         x="167.27"
         y="418.48999"
         width="2.6517"
         height="3.5355"
         ry="1.3257999"
         rx="1.3257999"
         style="fill:#808080"
         id="rect4802" />
      <rect
         x="163.2"
         y="418.48999"
         width="2.6517"
         height="3.5355"
         ry="1.3257999"
         rx="1.3257999"
         style="fill:#808080"
         id="rect4804" />
      <rect
         x="159.13"
         y="418.48999"
         width="2.6517"
         height="3.5355"
         ry="1.3257999"
         rx="1.3257999"
         style="fill:#808080"
         id="rect4806" />
      <rect
         x="155.06"
         y="418.48999"
         width="2.6517"
         height="3.5355"
         ry="1.3257999"
         rx="1.3257999"
         style="fill:#808080"
         id="rect4808" />
      <rect
         x="203.92"
         y="418.48999"
         width="2.6517"
         height="3.5355"
         ry="1.3257999"
         rx="1.3257999"
         style="fill:#808080"
         id="rect4810" />
    </g>
    <g
       transform="matrix(-1,0,0,1,607.31984,-17.678)"
       id="g4868">
      <rect
         x="199.85001"
         y="418.48999"
         width="2.6517"
         height="3.5355"
         ry="1.3257999"
         rx="1.3257999"
         style="fill:#808080"
         id="rect4870" />
      <rect
         x="195.78"
         y="418.48999"
         width="2.6517"
         height="3.5355"
         ry="1.3257999"
         rx="1.3257999"
         style="fill:#808080"
         id="rect4872" />
      <rect
         x="191.71001"
         y="418.48999"
         width="2.6517"
         height="3.5355"
         ry="1.3257999"
         rx="1.3257999"
         style="fill:#808080"
         id="rect4874" />
      <rect
         x="187.64"
         y="418.48999"
         width="2.6517"
         height="3.5355"
         ry="1.3257999"
         rx="1.3257999"
         style="fill:#808080"
         id="rect4876" />
      <rect
         x="183.56"
         y="418.48999"
         width="2.6517"
         height="3.5355"
         ry="1.3257999"
         rx="1.3257999"
         style="fill:#808080"
         id="rect4878" />
      <rect
         x="179.49001"
         y="418.48999"
         width="2.6517"
         height="3.5355"
         ry="1.3257999"
         rx="1.3257999"
         style="fill:#808080"
         id="rect4880" />
      <rect
         x="175.42"
         y="418.48999"
         width="2.6517"
         height="3.5355"
         ry="1.3257999"
         rx="1.3257999"
         style="fill:#808080"
         id="rect4882" />
      <rect
         x="171.35001"
         y="418.48999"
         width="2.6517"
         height="3.5355"
         ry="1.3257999"
         rx="1.3257999"
         style="fill:#808080"
         id="rect4884" />
      <rect
         x="167.27"
         y="418.48999"
         width="2.6517"
         height="3.5355"
         ry="1.3257999"
         rx="1.3257999"
         style="fill:#808080"
         id="rect4886" />
      <rect
         x="163.2"
         y="418.48999"
         width="2.6517"
         height="3.5355"
         ry="1.3257999"
         rx="1.3257999"
         style="fill:#808080"
         id="rect4888" />
      <rect
         x="159.13"
         y="418.48999"
         width="2.6517"
         height="3.5355"
         ry="1.3257999"
         rx="1.3257999"
         style="fill:#808080"
         id="rect4890" />
      <rect
         x="155.06"
         y="418.48999"
         width="2.6517"
         height="3.5355"
         ry="1.3257999"
         rx="1.3257999"
         style="fill:#808080"
         id="rect4892" />
      <rect
         x="203.92"
         y="418.48999"
         width="2.6517"
         height="3.5355"
         ry="1.3257999"
         rx="1.3257999"
         style="fill:#808080"
         id="rect4894" />
    </g>
    <g
       transform="matrix(-1,0,0,1,554.03984,-17.678)"
       id="g4896">
      <rect
         x="199.85001"
         y="418.48999"
         width="2.6517"
         height="3.5355"
         ry="1.3257999"
         rx="1.3257999"
         style="fill:#808080"
         id="rect4898" />
      <rect
         x="195.78"
         y="418.48999"
         width="2.6517"
         height="3.5355"
         ry="1.3257999"
         rx="1.3257999"
         style="fill:#808080"
         id="rect4900" />
      <rect
         x="191.71001"
         y="418.48999"
         width="2.6517"
         height="3.5355"
         ry="1.3257999"
         rx="1.3257999"
         style="fill:#808080"
         id="rect4902" />
      <rect
         x="187.64"
         y="418.48999"
         width="2.6517"
         height="3.5355"
         ry="1.3257999"
         rx="1.3257999"
         style="fill:#808080"
         id="rect4904" />
      <rect
         x="183.56"
         y="418.48999"
         width="2.6517"
         height="3.5355"
         ry="1.3257999"
         rx="1.3257999"
         style="fill:#808080"
         id="rect4906" />
      <rect
         x="179.49001"
         y="418.48999"
         width="2.6517"
         height="3.5355"
         ry="1.3257999"
         rx="1.3257999"
         style="fill:#808080"
         id="rect4908" />
      <rect
         x="175.42"
         y="418.48999"
         width="2.6517"
         height="3.5355"
         ry="1.3257999"
         rx="1.3257999"
         style="fill:#808080"
         id="rect4910" />
      <rect
         x="171.35001"
         y="418.48999"
         width="2.6517"
         height="3.5355"
         ry="1.3257999"
         rx="1.3257999"
         style="fill:#808080"
         id="rect4912" />
      <rect
         x="167.27"
         y="418.48999"
         width="2.6517"
         height="3.5355"
         ry="1.3257999"
         rx="1.3257999"
         style="fill:#808080"
         id="rect4914" />
      <rect
         x="163.2"
         y="418.48999"
         width="2.6517"
         height="3.5355"
         ry="1.3257999"
         rx="1.3257999"
         style="fill:#808080"
         id="rect4916" />
      <rect
         x="159.13"
         y="418.48999"
         width="2.6517"
         height="3.5355"
         ry="1.3257999"
         rx="1.3257999"
         style="fill:#808080"
         id="rect4918" />
      <rect
         x="155.06"
         y="418.48999"
         width="2.6517"
         height="3.5355"
         ry="1.3257999"
         rx="1.3257999"
         style="fill:#808080"
         id="rect4920" />
      <rect
         x="203.92"
         y="418.48999"
         width="2.6517"
         height="3.5355"
         ry="1.3257999"
         rx="1.3257999"
         style="fill:#808080"
         id="rect4922" />
    </g>
    <g
       transform="matrix(-1,0,0,1,499.98984,-17.678)"
       id="g4926">
      <rect
         x="199.85001"
         y="418.48999"
         width="2.6517"
         height="3.5355"
         ry="1.3257999"
         rx="1.3257999"
         style="fill:#808080"
         id="rect4928" />
      <rect
         x="195.78"
         y="418.48999"
         width="2.6517"
         height="3.5355"
         ry="1.3257999"
         rx="1.3257999"
         style="fill:#808080"
         id="rect4930" />
      <rect
         x="191.71001"
         y="418.48999"
         width="2.6517"
         height="3.5355"
         ry="1.3257999"
         rx="1.3257999"
         style="fill:#808080"
         id="rect4932" />
      <rect
         x="187.64"
         y="418.48999"
         width="2.6517"
         height="3.5355"
         ry="1.3257999"
         rx="1.3257999"
         style="fill:#808080"
         id="rect4934" />
      <rect
         x="183.56"
         y="418.48999"
         width="2.6517"
         height="3.5355"
         ry="1.3257999"
         rx="1.3257999"
         style="fill:#808080"
         id="rect4936" />
      <rect
         x="179.49001"
         y="418.48999"
         width="2.6517"
         height="3.5355"
         ry="1.3257999"
         rx="1.3257999"
         style="fill:#808080"
         id="rect4938" />
      <rect
         x="175.42"
         y="418.48999"
         width="2.6517"
         height="3.5355"
         ry="1.3257999"
         rx="1.3257999"
         style="fill:#808080"
         id="rect4940" />
      <rect
         x="171.35001"
         y="418.48999"
         width="2.6517"
         height="3.5355"
         ry="1.3257999"
         rx="1.3257999"
         style="fill:#808080"
         id="rect4942" />
      <rect
         x="167.27"
         y="418.48999"
         width="2.6517"
         height="3.5355"
         ry="1.3257999"
         rx="1.3257999"
         style="fill:#808080"
         id="rect4944" />
      <rect
         x="163.2"
         y="418.48999"
         width="2.6517"
         height="3.5355"
         ry="1.3257999"
         rx="1.3257999"
         style="fill:#808080"
         id="rect4946" />
      <rect
         x="159.13"
         y="418.48999"
         width="2.6517"
         height="3.5355"
         ry="1.3257999"
         rx="1.3257999"
         style="fill:#808080"
         id="rect4948" />
      <rect
         x="155.06"
         y="418.48999"
         width="2.6517"
         height="3.5355"
         ry="1.3257999"
         rx="1.3257999"
         style="fill:#808080"
         id="rect4950" />
      <rect
         x="203.92"
         y="418.48999"
         width="2.6517"
         height="3.5355"
         ry="1.3257999"
         rx="1.3257999"
         style="fill:#808080"
         id="rect4952" />
    </g>
    <g
       transform="matrix(-1,0,0,1,443.92984,0)"
       style="fill:#666666"
       id="g4954">
      <rect
         x="199.85001"
         y="418.48999"
         width="2.6517"
         height="3.5355"
         ry="1.3257999"
         rx="1.3257999"
         style="fill:#666666"
         id="rect4956" />
      <rect
         x="195.78"
         y="418.48999"
         width="2.6517"
         height="3.5355"
         ry="1.3257999"
         rx="1.3257999"
         style="fill:#666666"
         id="rect4958" />
      <rect
         x="191.71001"
         y="418.48999"
         width="2.6517"
         height="3.5355"
         ry="1.3257999"
         rx="1.3257999"
         style="fill:#666666"
         id="rect4960" />
      <rect
         x="187.64"
         y="418.48999"
         width="2.6517"
         height="3.5355"
         ry="1.3257999"
         rx="1.3257999"
         style="fill:#666666"
         id="rect4962" />
      <rect
         x="183.56"
         y="418.48999"
         width="2.6517"
         height="3.5355"
         ry="1.3257999"
         rx="1.3257999"
         style="fill:#666666"
         id="rect4964" />
      <rect
         x="179.49001"
         y="418.48999"
         width="2.6517"
         height="3.5355"
         ry="1.3257999"
         rx="1.3257999"
         style="fill:#666666"
         id="rect4966" />
      <rect
         x="175.42"
         y="418.48999"
         width="2.6517"
         height="3.5355"
         ry="1.3257999"
         rx="1.3257999"
         style="fill:#666666"
         id="rect4968" />
      <rect
         x="171.35001"
         y="418.48999"
         width="2.6517"
         height="3.5355"
         ry="1.3257999"
         rx="1.3257999"
         style="fill:#666666"
         id="rect4970" />
      <rect
         x="167.27"
         y="418.48999"
         width="2.6517"
         height="3.5355"
         ry="1.3257999"
         rx="1.3257999"
         style="fill:#666666"
         id="rect4972" />
      <rect
         x="163.2"
         y="418.48999"
         width="2.6517"
         height="3.5355"
         ry="1.3257999"
         rx="1.3257999"
         style="fill:#666666"
         id="rect4974" />
      <rect
         x="159.13"
         y="418.48999"
         width="2.6517"
         height="3.5355"
         ry="1.3257999"
         rx="1.3257999"
         style="fill:#666666"
         id="rect4976" />
      <rect
         x="155.06"
         y="418.48999"
         width="2.6517"
         height="3.5355"
         ry="1.3257999"
         rx="1.3257999"
         style="fill:#666666"
         id="rect4978" />
      <rect
         x="203.92"
         y="418.48999"
         width="2.6517"
         height="3.5355"
         ry="1.3257999"
         rx="1.3257999"
         style="fill:#666666"
         id="rect4980" />
    </g>
    <rect
       x="-464.85983"
       y="396.98001"
       width="7.9039001"
       height="10.761"
       ry="1.3257999"
       rx="1.3257999"
       style="fill:none;stroke:#000000;stroke-width:0.25321999"
       id="rect7186"
       transform="scale(-1,1)" />
    <rect
       x="-499.13983"
       y="417.70001"
       width="7.9039001"
       height="10.761"
       ry="1.3257999"
       rx="1.3257999"
       style="fill:none;stroke:#000000;stroke-width:0.25321999"
       id="rect7696"
       transform="scale(-1,1)" />
    <rect
       x="-236.99985"
       y="415.20001"
       width="7.9039001"
       height="10.761"
       ry="1.3257999"
       rx="1.3257999"
       style="fill:none;stroke:#000000;stroke-width:0.25321999"
       id="rect7698"
       transform="scale(-1,1)" />
    <path
       inkscape:connector-curvature="0"
       style="fill:#333333"
       sodipodi:nodetypes="ccccc"
       d="m 580.90984,447.9 v 3.75 c -4.3784,1.7636 -12.113,1.2897 -18.393,1.7857 l -0.17857,-4.1071 c 8.2902,0.14137 14.328,-0.37981 18.571,-1.4286 z"
       id="path7702" />
    <g
       id="g7916"
       transform="matrix(-1,0,0,1,711.61984,0)">
      <path
         d="m 294.2,444.24 7.2321,4.1071 -7.3214,3.125 z"
         inkscape:connector-curvature="0"
         style="fill:#333333"
         id="path4616" />
      <path
         d="m 288.74,440.67 5.9821,0.71429 v 12.857 l -5.9821,0.80357 z"
         inkscape:connector-curvature="0"
         style="fill:url(#linearGradient1007)"
         sodipodi:nodetypes="ccccc"
         id="rect4613" />
      <path
         d="m 246.48,433.67 v 26.769 c 0,0 7.3696,2.9385 18.096,2.7626 10.213,-0.16752 24.33,-2.7626 24.33,-2.7626 v -24.244 c 0,0 -15.038,-4.1605 -27.159,-3.6555 -12.122,0.50507 -15.267,1.1301 -15.267,1.1301 z"
         inkscape:connector-curvature="0"
         style="fill:url(#linearGradient1009)"
         sodipodi:nodetypes="ccsccsc"
         id="path4611" />
      <path
         d="m 263.65,432.68 v 30.537"
         inkscape:connector-curvature="0"
         style="fill:none;stroke:url(#linearGradient1011);stroke-width:0.40248001"
         id="path7708" />
      <path
         d="m 246.35,433.68 c 0.34977,-0.0473 0.63135,-0.0776 0.63135,-0.0776 v 27.03 c 0,0 -0.29736,-0.0994 -0.63135,-0.22567 -0.32717,-0.12369 -0.63135,-0.58743 -0.63135,-1.3171 v -24.093 c 0,-0.72967 0.28474,-1.2702 0.63135,-1.3171 z"
         inkscape:connector-curvature="0"
         style="fill:url(#linearGradient1013)"
         sodipodi:nodetypes="sccssss"
         id="rect7712" />
    </g>
    <g
       transform="matrix(-1,0,0,1,655.90584,-9.6429)"
       id="g7923">
      <path
         inkscape:connector-curvature="0"
         style="fill:#333333"
         d="m 294.2,444.24 7.2321,4.1071 -7.3214,3.125 z"
         id="path7925" />
      <path
         inkscape:connector-curvature="0"
         style="fill:url(#linearGradient7911)"
         sodipodi:nodetypes="ccccc"
         d="m 288.74,440.67 5.9821,0.71429 v 12.857 l -5.9821,0.80357 z"
         id="path7927" />
      <path
         inkscape:connector-curvature="0"
         style="fill:url(#linearGradient7908)"
         sodipodi:nodetypes="ccsccsc"
         d="m 246.48,433.67 v 26.769 c 0,0 7.3696,2.9385 18.096,2.7626 10.213,-0.16752 24.33,-2.7626 24.33,-2.7626 v -24.244 c 0,0 -15.038,-4.1605 -27.159,-3.6555 -12.122,0.50507 -15.267,1.1301 -15.267,1.1301 z"
         id="path7929" />
      <path
         inkscape:connector-curvature="0"
         style="fill:none;stroke:url(#linearGradient7730);stroke-width:0.40248001"
         d="m 263.65,432.68 v 30.537"
         id="path7931" />
      <path
         inkscape:connector-curvature="0"
         style="fill:url(#linearGradient7753)"
         sodipodi:nodetypes="sccssss"
         d="m 246.35,433.68 c 0.34977,-0.0473 0.63135,-0.0776 0.63135,-0.0776 v 27.03 c 0,0 -0.29736,-0.0994 -0.63135,-0.22567 -0.32717,-0.12369 -0.63135,-0.58743 -0.63135,-1.3171 v -24.093 c 0,-0.72967 0.28474,-1.2702 0.63135,-1.3171 z"
         id="path7933" />
    </g>
    <rect
       x="-569.31982"
       y="417.70001"
       width="7.9039001"
       height="10.761"
       ry="1.3257999"
       rx="1.3257999"
       style="fill:none;stroke:#000000;stroke-width:0.25321999"
       id="rect7943"
       transform="scale(-1,1)" />
    <path
       inkscape:connector-curvature="0"
       style="fill:#43484c"
       d="m 199.46984,412.94 c 0,0 -63.135,-9.5964 -68.185,-9.5964 h -28.789 l 29.8,11.112 c 0,0 52.528,2.5254 58.084,2.0203 5.5558,-0.50507 9.0914,-3.5355 9.0914,-3.5355 z"
       id="path4605" />
    <path
       inkscape:connector-curvature="0"
       style="fill:#b3b3b3"
       sodipodi:nodetypes="czc"
       d="m 102.51984,403.32 c 7.1288,0.76625 32.125,1.7085 31.116,-0.13393 -1.0085,-1.8424 -22.034,-0.53389 -31.116,0.13393 z"
       id="path7973" />
    <path
       inkscape:connector-curvature="0"
       sodipodi:nodetypes="ccccc"
       d="m 208.70984,372.741 c -16.334,-18.407 -32.57,-37.011 -49.056,-55.116 l -50.63,-17.931 19.64,44.636 z"
       style="fill:url(#linearGradient7984)"
       id="path7976" />
  </g>
  <metadata
     id="metadata199">
    <rdf:RDF>
      <cc:Work>
        <dc:format>image/svg+xml</dc:format>
        <dc:type
           rdf:resource="http://purl.org/dc/dcmitype/StillImage" />
        <cc:license
           rdf:resource="http://creativecommons.org/publicdomain/zero/1.0/" />
        <dc:publisher>
          <cc:Agent
             rdf:about="http://openclipart.org/">
            <dc:title>Openclipart</dc:title>
          </cc:Agent>
        </dc:publisher>
        <dc:title>airliner</dc:title>
        <dc:date>2012-03-23T10:10:12</dc:date>
        <dc:description>Airbus A380 in profile</dc:description>
        <dc:source>https://openclipart.org/detail/169030/airliner-by-sagism</dc:source>
        <dc:creator>
          <cc:Agent>
            <dc:title>sagism</dc:title>
          </cc:Agent>
        </dc:creator>
        <dc:subject>
          <rdf:Bag>
            <rdf:li>A380</rdf:li>
            <rdf:li>airbus</rdf:li>
            <rdf:li>airline</rdf:li>
            <rdf:li>airliner</rdf:li>
            <rdf:li>airplane</rdf:li>
            <rdf:li>flight</rdf:li>
            <rdf:li>transportation</rdf:li>
          </rdf:Bag>
        </dc:subject>
      </cc:Work>
      <cc:License
         rdf:about="http://creativecommons.org/publicdomain/zero/1.0/">
        <cc:permits
           rdf:resource="http://creativecommons.org/ns#Reproduction" />
        <cc:permits
           rdf:resource="http://creativecommons.org/ns#Distribution" />
        <cc:permits
           rdf:resource="http://creativecommons.org/ns#DerivativeWorks" />
      </cc:License>
    </rdf:RDF>
  </metadata>
</svg>
