<?xml version="1.0" encoding="UTF-8" standalone="no"?>
<!-- Generator: Adobe Illustrator 14.0.0, SVG Export Plug-In . SVG Version: 6.00 Build 43363)  -->

<svg
   xmlns:dc="http://purl.org/dc/elements/1.1/"
   xmlns:cc="http://creativecommons.org/ns#"
   xmlns:rdf="http://www.w3.org/1999/02/22-rdf-syntax-ns#"
   xmlns:svg="http://www.w3.org/2000/svg"
   xmlns="http://www.w3.org/2000/svg"
   xmlns:sodipodi="http://sodipodi.sourceforge.net/DTD/sodipodi-0.dtd"
   xmlns:inkscape="http://www.inkscape.org/namespaces/inkscape"
   version="1.1"
   x="0px"
   y="0px"
   width="2272px"
   height="1872px"
   viewBox="0 0 2272 1872"
   enable-background="new 0 0 2272 1872"
   xml:space="preserve"
   id="svg857"
   sodipodi:docname="factory.svg"
   inkscape:version="0.92.4 (5da689c313, 2019-01-14)"><metadata
   id="metadata863"><rdf:RDF><cc:Work
       rdf:about=""><dc:format>image/svg+xml</dc:format><dc:type
         rdf:resource="http://purl.org/dc/dcmitype/StillImage" /></cc:Work></rdf:RDF></metadata><defs
   id="defs861">
	
	
	
	
	
</defs><sodipodi:namedview
   pagecolor="#ffffff"
   bordercolor="#666666"
   borderopacity="1"
   objecttolerance="10"
   gridtolerance="10"
   guidetolerance="10"
   inkscape:pageopacity="0"
   inkscape:pageshadow="2"
   inkscape:window-width="1920"
   inkscape:window-height="1017"
   id="namedview859"
   showgrid="false"
   inkscape:zoom="0.48"
   inkscape:cx="1136"
   inkscape:cy="936"
   inkscape:window-x="-8"
   inkscape:window-y="-8"
   inkscape:window-maximized="1"
   inkscape:current-layer="svg857" />
<g
   id="back">
	<g
   id="g252">
		<g
   id="g248">
			<rect
   fill="#BDD3D6"
   width="2271.879"
   height="1580.323"
   id="rect2" />
			<g
   id="g246">
				<g
   id="g176">
					<g
   id="g90">
						<g
   id="g28">
							<g
   id="g8">
								<polygon
   fill="#848484"
   points="188.582,957.24 173.888,948.944 349.683,849.691 364.377,857.987         "
   id="polygon4" />
								<polygon
   fill="#848484"
   points="355.313,957.24 370.006,948.944 194.211,849.691 179.518,857.987         "
   id="polygon6" />
							</g>
							<g
   id="g14">
								<polygon
   fill="#848484"
   points="14.693,957.24 0,948.944 175.795,849.691 190.489,857.987         "
   id="polygon10" />
								<polygon
   fill="#848484"
   points="181.424,957.24 196.118,948.944 20.323,849.691 5.629,857.987         "
   id="polygon12" />
							</g>
							<g
   id="g20">
								<polygon
   fill="#848484"
   points="542.775,957.24 528.082,948.944 703.877,849.691 718.57,857.987         "
   id="polygon16" />
								<polygon
   fill="#848484"
   points="709.506,957.24 724.2,948.944 548.405,849.691 533.711,857.987         "
   id="polygon18" />
							</g>
							<g
   id="g26">
								<polygon
   fill="#848484"
   points="368.887,957.24 354.193,948.944 529.988,849.691 544.682,857.987         "
   id="polygon22" />
								<polygon
   fill="#848484"
   points="535.618,957.24 550.312,948.944 374.517,849.691 359.823,857.987         "
   id="polygon24" />
							</g>
						</g>
						<g
   id="g54">
							<g
   id="g34">
								<polygon
   fill="#848484"
   points="895.447,957.24 880.753,948.944 1056.548,849.691 1071.242,857.987         "
   id="polygon30" />
								<polygon
   fill="#848484"
   points="1062.178,957.24 1076.871,948.944 901.077,849.691 886.383,857.987         "
   id="polygon32" />
							</g>
							<g
   id="g40">
								<polygon
   fill="#848484"
   points="721.559,957.24 706.865,948.944 882.66,849.691 897.354,857.987         "
   id="polygon36" />
								<polygon
   fill="#848484"
   points="888.29,957.24 902.983,948.944 727.188,849.691 712.495,857.987         "
   id="polygon38" />
							</g>
							<g
   id="g46">
								<polygon
   fill="#848484"
   points="1249.641,957.24 1234.947,948.944 1410.742,849.691 1425.436,857.987         "
   id="polygon42" />
								<polygon
   fill="#848484"
   points="1416.371,957.24 1431.065,948.944 1255.27,849.691 1240.576,857.987         "
   id="polygon44" />
							</g>
							<g
   id="g52">
								<polygon
   fill="#848484"
   points="1075.752,957.24 1061.059,948.944 1236.854,849.691 1251.547,857.987         "
   id="polygon48" />
								<polygon
   fill="#848484"
   points="1242.483,957.24 1257.177,948.944 1081.382,849.691 1066.688,857.987         "
   id="polygon50" />
							</g>
						</g>
						<g
   id="g80">
							<g
   id="g60">
								<polygon
   fill="#848484"
   points="1596.338,957.24 1581.645,948.944 1757.439,849.691 1772.133,857.987         "
   id="polygon56" />
								<polygon
   fill="#848484"
   points="1763.068,957.24 1777.762,948.944 1601.967,849.691 1587.273,857.987         "
   id="polygon58" />
							</g>
							<g
   id="g66">
								<polygon
   fill="#848484"
   points="1422.449,957.24 1407.756,948.944 1583.551,849.691 1598.244,857.987         "
   id="polygon62" />
								<polygon
   fill="#848484"
   points="1589.181,957.24 1603.874,948.944 1428.079,849.691 1413.385,857.987         "
   id="polygon64" />
							</g>
							<g
   id="g72">
								<polygon
   fill="#848484"
   points="1950.531,957.24 1935.838,948.944 2111.633,849.691 2126.326,857.987         "
   id="polygon68" />
								<polygon
   fill="#848484"
   points="2117.262,957.24 2131.955,948.944 1956.16,849.691 1941.467,857.987         "
   id="polygon70" />
							</g>
							<g
   id="g78">
								<polygon
   fill="#848484"
   points="1776.643,957.24 1761.949,948.944 1937.744,849.691 1952.438,857.987         "
   id="polygon74" />
								<polygon
   fill="#848484"
   points="1943.374,957.24 1958.067,948.944 1782.272,849.691 1767.579,857.987         "
   id="polygon76" />
							</g>
						</g>
						<g
   id="g88">
							<polygon
   fill="#848484"
   points="2119.189,948.944 2133.883,957.24 2217.248,910.172 2202.555,901.876        "
   id="polygon82" />
							<polygon
   fill="#848484"
   points="2272,879.26 2272,862.668 2217.248,893.581 2231.942,901.876        "
   id="polygon84" />
							<polygon
   fill="#848484"
   points="2231.942,901.876 2217.248,893.581 2139.513,849.691 2124.819,857.987 2202.555,901.876          2217.248,910.172 2272,941.085 2272,924.493        "
   id="polygon86" />
						</g>
					</g>
					<g
   id="g174">
						<rect
   y="831.147"
   fill="#848484"
   width="2272"
   height="31.982"
   id="rect92" />
						<rect
   y="615.384"
   fill="#848484"
   width="2272"
   height="15.991"
   id="rect94" />
						<rect
   y="949.245"
   fill="#848484"
   width="2272"
   height="15.99"
   id="rect96" />
						<g
   id="g108">
							<rect
   x="52.818"
   y="631.375"
   fill="#848484"
   width="20.78"
   height="201.547"
   id="rect98" />
							<rect
   x="127.565"
   y="631.375"
   fill="#848484"
   width="20.78"
   height="201.547"
   id="rect100" />
							<rect
   x="201.164"
   y="631.375"
   fill="#848484"
   width="20.78"
   height="201.547"
   id="rect102" />
							<rect
   x="274.762"
   y="631.375"
   fill="#848484"
   width="20.78"
   height="201.547"
   id="rect104" />
							<rect
   x="344.329"
   y="631.375"
   fill="#848484"
   width="31.141"
   height="201.547"
   id="rect106" />
						</g>
						<g
   id="g118">
							<rect
   x="423.218"
   y="631.375"
   fill="#848484"
   width="20.78"
   height="201.547"
   id="rect110" />
							<rect
   x="496.816"
   y="631.375"
   fill="#848484"
   width="20.78"
   height="201.547"
   id="rect112" />
							<rect
   x="570.415"
   y="631.375"
   fill="#848484"
   width="20.78"
   height="201.547"
   id="rect114" />
							<rect
   x="639.981"
   y="631.375"
   fill="#848484"
   width="31.141"
   height="201.547"
   id="rect116" />
						</g>
						<g
   id="g128">
							<rect
   x="720.785"
   y="631.375"
   fill="#848484"
   width="20.78"
   height="201.547"
   id="rect120" />
							<rect
   x="794.383"
   y="631.375"
   fill="#848484"
   width="20.78"
   height="201.547"
   id="rect122" />
							<rect
   x="867.981"
   y="631.375"
   fill="#848484"
   width="20.78"
   height="201.547"
   id="rect124" />
							<rect
   x="937.548"
   y="631.375"
   fill="#848484"
   width="31.141"
   height="201.547"
   id="rect126" />
						</g>
						<g
   id="g138">
							<rect
   x="1016.438"
   y="631.375"
   fill="#848484"
   width="20.78"
   height="201.547"
   id="rect130" />
							<rect
   x="1090.036"
   y="631.375"
   fill="#848484"
   width="20.78"
   height="201.547"
   id="rect132" />
							<rect
   x="1163.634"
   y="631.375"
   fill="#848484"
   width="20.78"
   height="201.547"
   id="rect134" />
							<rect
   x="1233.201"
   y="631.375"
   fill="#848484"
   width="31.141"
   height="201.547"
   id="rect136" />
						</g>
						<g
   id="g148">
							<rect
   x="1312.319"
   y="631.375"
   fill="#848484"
   width="20.78"
   height="201.547"
   id="rect140" />
							<rect
   x="1385.917"
   y="631.375"
   fill="#848484"
   width="20.78"
   height="201.547"
   id="rect142" />
							<rect
   x="1459.516"
   y="631.375"
   fill="#848484"
   width="20.779"
   height="201.547"
   id="rect144" />
							<rect
   x="1529.082"
   y="631.375"
   fill="#848484"
   width="31.141"
   height="201.547"
   id="rect146" />
						</g>
						<g
   id="g158">
							<rect
   x="1606.123"
   y="631.375"
   fill="#848484"
   width="20.779"
   height="201.547"
   id="rect150" />
							<rect
   x="1679.721"
   y="631.375"
   fill="#848484"
   width="20.78"
   height="201.547"
   id="rect152" />
							<rect
   x="1753.319"
   y="631.375"
   fill="#848484"
   width="20.779"
   height="201.547"
   id="rect154" />
							<rect
   x="1822.886"
   y="631.375"
   fill="#848484"
   width="31.141"
   height="201.547"
   id="rect156" />
						</g>
						<g
   id="g168">
							<rect
   x="1899.725"
   y="631.375"
   fill="#848484"
   width="20.78"
   height="201.547"
   id="rect160" />
							<rect
   x="1973.323"
   y="631.375"
   fill="#848484"
   width="20.78"
   height="201.547"
   id="rect162" />
							<rect
   x="2046.921"
   y="631.375"
   fill="#848484"
   width="20.78"
   height="201.547"
   id="rect164" />
							<rect
   x="2116.488"
   y="631.375"
   fill="#848484"
   width="31.141"
   height="201.547"
   id="rect166" />
						</g>
						<g
   id="g172">
							<rect
   x="2197.725"
   y="631.375"
   fill="#848484"
   width="20.78"
   height="201.547"
   id="rect170" />
						</g>
					</g>
				</g>
				<g
   id="g244">
					<rect
   fill="#848484"
   width="2272"
   height="584.756"
   id="rect178" />
					<rect
   fill="#5A5A5A"
   width="2271.75"
   height="123.786"
   id="rect180" />
					<g
   id="g242">
						<g
   id="g192">
							<rect
   x="54.537"
   y="157.007"
   fill="#7ABCDD"
   width="360.269"
   height="393.993"
   id="rect182" />
							<rect
   x="227.67"
   y="157.007"
   fill="#848484"
   width="14.003"
   height="393.993"
   id="rect184" />
							<g
   id="g190">
								<rect
   x="54.537"
   y="268.002"
   fill="#848484"
   width="360.269"
   height="14.003"
   id="rect186" />
								<rect
   x="54.537"
   y="426.002"
   fill="#848484"
   width="360.269"
   height="14.003"
   id="rect188" />
							</g>
						</g>
						<g
   id="g204">
							<rect
   x="505.67"
   y="157.007"
   fill="#7ABCDD"
   width="360.269"
   height="393.993"
   id="rect194" />
							<rect
   x="678.803"
   y="157.007"
   fill="#848484"
   width="14.003"
   height="393.993"
   id="rect196" />
							<g
   id="g202">
								<rect
   x="505.67"
   y="268.002"
   fill="#848484"
   width="360.269"
   height="14.003"
   id="rect198" />
								<rect
   x="505.67"
   y="426.002"
   fill="#848484"
   width="360.269"
   height="14.003"
   id="rect200" />
							</g>
						</g>
						<g
   id="g216">
							<rect
   x="956.802"
   y="157.007"
   fill="#7ABCDD"
   width="360.269"
   height="393.993"
   id="rect206" />
							<rect
   x="1129.935"
   y="157.007"
   fill="#848484"
   width="14.003"
   height="393.993"
   id="rect208" />
							<g
   id="g214">
								<rect
   x="956.802"
   y="268.002"
   fill="#848484"
   width="360.269"
   height="14.003"
   id="rect210" />
								<rect
   x="956.802"
   y="426.002"
   fill="#848484"
   width="360.269"
   height="14.003"
   id="rect212" />
							</g>
						</g>
						<g
   id="g228">
							<rect
   x="1407.935"
   y="157.007"
   fill="#7ABCDD"
   width="360.269"
   height="393.993"
   id="rect218" />
							<rect
   x="1581.067"
   y="157.007"
   fill="#848484"
   width="14.003"
   height="393.993"
   id="rect220" />
							<g
   id="g226">
								<rect
   x="1407.935"
   y="268.002"
   fill="#848484"
   width="360.269"
   height="14.003"
   id="rect222" />
								<rect
   x="1407.935"
   y="426.002"
   fill="#848484"
   width="360.269"
   height="14.003"
   id="rect224" />
							</g>
						</g>
						<g
   id="g240">
							<rect
   x="1857.194"
   y="157.007"
   fill="#7ABCDD"
   width="360.269"
   height="393.993"
   id="rect230" />
							<rect
   x="2030.327"
   y="157.007"
   fill="#848484"
   width="14.003"
   height="393.993"
   id="rect232" />
							<g
   id="g238">
								<rect
   x="1857.194"
   y="268.002"
   fill="#848484"
   width="360.269"
   height="14.003"
   id="rect234" />
								<rect
   x="1857.194"
   y="426.002"
   fill="#848484"
   width="360.269"
   height="14.003"
   id="rect236" />
							</g>
						</g>
					</g>
				</g>
			</g>
		</g>
		<rect
   y="1580.323"
   fill="#328896"
   width="2271.879"
   height="291.677"
   id="rect250" />
	</g>
</g>
<g
   id="wood_boxes">
		<g
   id="g271">
			<rect
   style="fill:#6d4131"
   x="0"
   id="rect255"
   height="296.26199"
   width="296.26199"
   y="1293.682" />
			<path
   style="fill:#895e46"
   inkscape:connector-curvature="0"
   id="path257"
   d="M 258.537,1572.861 H 37.725 c -11.401,0 -20.643,-9.242 -20.643,-20.644 v -220.811 c 0,-11.401 9.242,-20.644 20.643,-20.644 h 220.812 c 11.401,0 20.644,9.242 20.644,20.644 v 220.811 c -10e-4,11.402 -9.243,20.644 -20.644,20.644 z" />
			<path
   style="fill:#6d4131"
   inkscape:connector-curvature="0"
   id="path259"
   d="M 240.84,1555.165 H 55.422 c -11.401,0 -20.644,-9.242 -20.644,-20.644 v -185.418 c 0,-11.4 9.242,-20.644 20.644,-20.644 H 240.84 c 11.401,0 20.644,9.243 20.644,20.644 v 185.418 c -10e-4,11.402 -9.243,20.644 -20.644,20.644 z" />
			<g
   id="g269">
				<g
   id="g263">
					
						<rect
   style="fill:#895e46"
   id="rect261"
   height="234.87199"
   width="30.143999"
   transform="matrix(0.7071,-0.7071,0.7071,0.7071,-976.1187,527.0287)"
   y="1324.377"
   x="133.05901" />
				</g>
				<g
   id="g267">
					
						<rect
   style="fill:#895e46"
   id="rect265"
   height="234.87199"
   width="30.143999"
   transform="matrix(-0.7071,-0.7071,0.7071,-0.7071,-766.6276,2566.0835)"
   y="1324.377"
   x="133.05901" />
				</g>
			</g>
		</g>
		<path
   style="opacity:0.5;fill:#5a5a5a"
   inkscape:connector-curvature="0"
   id="path273"
   d="M 651.389,1589.943 H 9.195 c -5.078,0 -9.195,4.117 -9.195,9.195 v 6.166 c 0,5.078 4.117,9.195 9.195,9.195 h 642.194 c 6.781,0 12.278,-5.497 12.278,-12.278 v 0 c 0,-6.781 -5.498,-12.278 -12.278,-12.278 z" />
		<g
   id="g291">
			<rect
   style="fill:#6d4131"
   id="rect275"
   height="296.26199"
   width="296.26199"
   y="1293.682"
   x="293.08099" />
			<path
   style="fill:#895e46"
   inkscape:connector-curvature="0"
   id="path277"
   d="M 551.617,1572.861 H 330.806 c -11.401,0 -20.644,-9.242 -20.644,-20.644 v -220.811 c 0,-11.401 9.243,-20.644 20.644,-20.644 h 220.811 c 11.401,0 20.644,9.242 20.644,20.644 v 220.811 c -10e-4,11.402 -9.243,20.644 -20.644,20.644 z" />
			<path
   style="fill:#6d4131"
   inkscape:connector-curvature="0"
   id="path279"
   d="M 533.92,1555.165 H 348.502 c -11.401,0 -20.644,-9.242 -20.644,-20.644 v -185.418 c 0,-11.4 9.243,-20.644 20.644,-20.644 H 533.92 c 11.401,0 20.644,9.243 20.644,20.644 v 185.418 c -10e-4,11.402 -9.243,20.644 -20.644,20.644 z" />
			<g
   id="g289">
				<g
   id="g283">
					
						<rect
   style="fill:#895e46"
   id="rect281"
   height="234.87199"
   width="30.143999"
   transform="matrix(0.7071,-0.7071,0.7071,0.7071,-890.2798,734.2656)"
   y="1324.377"
   x="426.14001" />
				</g>
				<g
   id="g287">
					
						<rect
   style="fill:#895e46"
   id="rect285"
   height="234.87199"
   width="30.143999"
   transform="matrix(-0.7071,-0.7071,0.7071,-0.7071,-266.3054,2773.3203)"
   y="1324.377"
   x="426.14001" />
				</g>
			</g>
		</g>
		<g
   id="g309">
			<rect
   style="fill:#6d4131"
   id="rect293"
   height="296.263"
   width="296.26199"
   y="997.36298"
   x="121.001" />
			<path
   style="fill:#895e46"
   inkscape:connector-curvature="0"
   id="path295"
   d="M 379.538,1276.544 H 158.727 c -11.401,0 -20.644,-9.242 -20.644,-20.644 v -220.812 c 0,-11.4 9.242,-20.644 20.644,-20.644 h 220.811 c 11.401,0 20.644,9.243 20.644,20.644 V 1255.9 c 0,11.402 -9.243,20.644 -20.644,20.644 z" />
			<path
   style="fill:#6d4131"
   inkscape:connector-curvature="0"
   id="path297"
   d="M 361.841,1258.847 H 176.424 c -11.401,0 -20.644,-9.242 -20.644,-20.644 v -185.417 c 0,-11.401 9.242,-20.644 20.644,-20.644 h 185.417 c 11.401,0 20.644,9.242 20.644,20.644 v 185.417 c 0,11.401 -9.243,20.644 -20.644,20.644 z" />
			<g
   id="g307">
				<g
   id="g301">
					
						<rect
   style="fill:#895e46"
   id="rect299"
   height="234.87199"
   width="30.143999"
   transform="matrix(0.7071,-0.7071,0.7071,0.7071,-731.1671,525.8244)"
   y="1028.058"
   x="254.06" />
				</g>
				<g
   id="g305">
					
						<rect
   style="fill:#895e46"
   id="rect303"
   height="234.87199"
   width="30.143999"
   transform="matrix(-0.7071,-0.7071,0.7071,-0.7071,-350.5609,2145.7798)"
   y="1028.058"
   x="254.06" />
				</g>
			</g>
		</g>
	</g><g
   id="conveyor_robot">
		<path
   style="opacity:0.5;fill:#5a5a5a"
   inkscape:connector-curvature="0"
   id="path312"
   d="M 2272,1730.235 H 415.039 c -24.871,0 -45.032,-20.161 -45.032,-45.032 v 0 c 0,-24.871 20.162,-45.032 45.032,-45.032 H 2272 Z" />
		<g
   id="g536">
			<g
   id="g330">
				<g
   id="g326">
					<rect
   style="fill:#ce6200"
   id="rect314"
   height="166.939"
   width="166.938"
   y="1056.449"
   x="2019.173" />
					<rect
   style="fill:#ec9e00"
   id="rect316"
   height="166.939"
   width="166.938"
   y="1056.449"
   x="2066.541" />
					<rect
   style="fill:#ce6200"
   id="rect318"
   height="18.160999"
   width="60.033001"
   y="1158.804"
   x="2158.457" />
					<rect
   style="fill:#ce6200"
   id="rect320"
   height="5.6420002"
   width="60.033001"
   y="1184.663"
   x="2158.457" />
					<rect
   style="fill:#ce6200"
   id="rect322"
   height="5.6420002"
   width="60.033001"
   y="1195.188"
   x="2158.457" />
					<rect
   style="fill:#ce6200"
   id="rect324"
   height="5.6420002"
   width="60.033001"
   y="1205.715"
   x="2158.457" />
				</g>
				<rect
   style="fill:#f2ca8b"
   id="rect328"
   height="67.346001"
   width="102.512"
   y="1057.7629"
   x="2096.2439" />
			</g>
			<g
   id="g348">
				<g
   id="g344">
					<rect
   style="fill:#ce6200"
   id="rect332"
   height="166.938"
   width="166.939"
   y="1055.472"
   x="1481.024" />
					<rect
   style="fill:#ec9e00"
   id="rect334"
   height="166.938"
   width="166.939"
   y="1055.472"
   x="1528.3929" />
					<rect
   style="fill:#ce6200"
   id="rect336"
   height="18.160999"
   width="60.033001"
   y="1157.825"
   x="1620.309" />
					<rect
   style="fill:#ce6200"
   id="rect338"
   height="5.6420002"
   width="60.033001"
   y="1183.6851"
   x="1620.309" />
					<rect
   style="fill:#ce6200"
   id="rect340"
   height="5.6420002"
   width="60.033001"
   y="1194.2111"
   x="1620.309" />
					<rect
   style="fill:#ce6200"
   id="rect342"
   height="5.6420002"
   width="60.033001"
   y="1204.7371"
   x="1620.309" />
				</g>
				<rect
   style="fill:#f2ca8b"
   id="rect346"
   height="67.346001"
   width="102.511"
   y="1056.785"
   x="1558.097" />
			</g>
			<g
   id="g494">
				
					<rect
   style="fill:#455576"
   id="rect350"
   height="74.796997"
   width="261.047"
   transform="matrix(-0.9208,-0.3901,0.3901,-0.9208,2965.1885,1755.7302)"
   y="539.37701"
   x="1530.35" />
				<g
   id="g354">
					<path
   style="fill:#455576"
   inkscape:connector-curvature="0"
   id="path352"
   d="m 2173.268,1092.992 c 17.815,0 35.123,-5.9 49.293,-16.909 15.751,-12.235 26.348,-29.788 29.838,-49.426 l 8.568,-48.211 c 4.819,-27.114 -4.382,-54.456 -24.613,-73.139 l -81.957,-75.688 c -23.109,-21.342 -37.441,-50.345 -40.354,-81.667 l -8.923,-95.945 c -1.207,-12.981 -7.179,-24.967 -16.814,-33.749 -9.637,-8.781 -22.123,-13.618 -35.161,-13.618 h -76.99 v 26.831 h 76.99 c 13.181,0 24.04,9.896 25.26,23.02 l 8.923,95.945 c 3.527,37.929 20.882,73.05 48.866,98.894 l 81.958,75.688 c 13.479,12.449 19.61,30.667 16.399,48.732 l -8.569,48.211 c -4.825,27.152 -29.2,46.091 -56.707,44.052 l -1.983,26.758 c 1.995,0.148 3.989,0.221 5.976,0.221 z" />
				</g>
				<g
   id="g360">
					<path
   style="fill:#3392d6"
   inkscape:connector-curvature="0"
   id="path356"
   d="m 1755.376,719.328 h 191.875 c 45.339,0 82.093,-36.754 82.093,-82.093 v -23.54 c 0,-45.339 -36.754,-82.093 -82.093,-82.093 h -191.875 c -45.339,0 -82.093,36.754 -82.093,82.093 v 23.54 c 0,45.338 36.754,82.093 82.093,82.093 z" />
					<path
   style="fill:#455576"
   inkscape:connector-curvature="0"
   id="path358"
   d="m 1763.382,696.128 h 175.863 c 39.026,0 70.663,-31.637 70.663,-70.663 v 0 c 0,-39.026 -31.637,-70.663 -70.663,-70.663 h -175.863 c -39.025,0 -70.663,31.637 -70.663,70.663 v 0 c 0,39.026 31.637,70.663 70.663,70.663 z" />
				</g>
				<g
   id="g370">
					<path
   style="fill:#ec9e00"
   inkscape:connector-curvature="0"
   id="path362"
   d="m 1846.669,573.548 -282.646,282.646 c -32.335,32.335 -32.335,84.761 0,117.097 v 0 c 32.336,32.335 84.762,32.335 117.097,0 l 282.646,-282.646 c 32.336,-32.335 32.336,-84.761 0,-117.097 v 0 c -32.335,-32.335 -84.761,-32.335 -117.097,0 z" />
					<path
   style="fill:#c67f02"
   inkscape:connector-curvature="0"
   id="path364"
   d="m 1745.194,711.922 -161.192,161.192 c -22.146,22.146 -22.146,58.052 0,80.198 v 0 c 22.146,22.146 58.052,22.146 80.197,0 L 1825.392,792.12 c 22.146,-22.146 22.146,-58.052 0,-80.198 h -10e-4 c -22.145,-22.146 -58.051,-22.146 -80.197,0 z" />
					<path
   style="fill:#c67f02"
   inkscape:connector-curvature="0"
   id="path366"
   d="M 1855.183,601.934 1592.41,864.707 c -22.146,22.146 -22.146,58.052 0,80.198 v 0 c 22.146,22.146 58.052,22.146 80.197,0 l 262.774,-262.773 c 22.146,-22.146 22.146,-58.052 0,-80.198 h -10e-4 c -22.146,-22.146 -58.052,-22.146 -80.197,0 z" />
					<path
   style="fill:#455576"
   inkscape:connector-curvature="0"
   id="path368"
   d="m 1869.203,622.516 -256.212,256.213 c -12.591,12.591 -12.591,33.004 0,45.595 v 0 c 12.591,12.59 33.004,12.59 45.595,0 l 256.213,-256.213 c 12.59,-12.59 12.59,-33.004 0,-45.595 h -10e-4 c -12.59,-12.591 -33.004,-12.591 -45.595,0 z" />
				</g>
				<path
   style="fill:#f6b03e"
   inkscape:connector-curvature="0"
   id="path372"
   d="m 732.168,1319.896 c 0,52.728 42.896,95.623 95.623,95.623 H 2271.879 V 1224.273 H 827.791 c -52.727,0 -95.623,42.897 -95.623,95.623 z m 35.416,0 c 0,-33.198 27.009,-60.207 60.207,-60.207 h 1426.38 v 120.414 H 827.791 c -33.198,10e-4 -60.207,-27.008 -60.207,-60.207 z" />
				<path
   style="fill:#455576"
   inkscape:connector-curvature="0"
   id="path374"
   d="m 827.791,1397.812 h 1444.088 v -155.83 H 827.791 c -43.031,0 -77.915,34.884 -77.915,77.915 v 0 c 0,43.031 34.884,77.915 77.915,77.915 z" />
				<g
   id="g390">
					<circle
   style="fill:#3392d6"
   id="circle376"
   r="23.905001"
   cy="1319.896"
   cx="2158.5471" />
					<circle
   style="fill:#3392d6"
   id="circle378"
   r="23.905001"
   cy="1319.896"
   cx="1952.25" />
					<circle
   style="fill:#3392d6"
   id="circle380"
   r="23.903999"
   cy="1319.896"
   cx="1745.951" />
					<circle
   style="fill:#3392d6"
   id="circle382"
   r="23.905001"
   cy="1319.896"
   cx="1539.653" />
					<circle
   style="fill:#3392d6"
   id="circle384"
   r="23.905001"
   cy="1319.896"
   cx="1333.355" />
					<circle
   style="fill:#3392d6"
   id="circle386"
   r="23.905001"
   cy="1319.896"
   cx="1127.056" />
					<circle
   style="fill:#3392d6"
   id="circle388"
   r="23.905001"
   cy="1319.896"
   cx="920.758" />
				</g>
				<rect
   style="fill:#565656"
   id="rect392"
   height="243.60201"
   width="140.11501"
   y="1415.52"
   x="2088.49" />
				<rect
   style="fill:#565656"
   id="rect394"
   height="243.60201"
   width="140.11501"
   y="1415.52"
   x="1675.894" />
				<rect
   style="fill:#565656"
   id="rect396"
   height="243.60201"
   width="140.11501"
   y="1415.52"
   x="1263.297" />
				<rect
   style="fill:#565656"
   id="rect398"
   height="243.60201"
   width="140.11501"
   y="1415.52"
   x="850.70099" />
				<path
   style="fill:#38465e"
   inkscape:connector-curvature="0"
   id="path400"
   d="m 775.087,1701.713 h 1496.792 v -79.445 H 812.882 c -20.874,0 -37.795,16.921 -37.795,37.794 z" />
				<rect
   style="fill:#38465e"
   id="rect402"
   height="37.900002"
   width="140.11501"
   y="1621.2209"
   x="2088.49" />
				<rect
   style="fill:#38465e"
   id="rect404"
   height="37.900002"
   width="140.11501"
   y="1621.2209"
   x="1675.894" />
				<rect
   style="fill:#38465e"
   id="rect406"
   height="37.900002"
   width="140.11501"
   y="1621.2209"
   x="1263.297" />
				<rect
   style="fill:#38465e"
   id="rect408"
   height="37.900002"
   width="140.11501"
   y="1621.2209"
   x="850.70099" />
				<g
   id="g414">
					<path
   style="fill:#c67f02"
   inkscape:connector-curvature="0"
   id="path410"
   d="m 1809.531,1174.602 h 285.436 c 50.241,0 90.97,-40.728 90.97,-90.969 v -12.583 c 0,-50.241 -40.729,-90.97 -90.97,-90.97 h -285.436 c -50.241,0 -90.969,40.729 -90.969,90.97 v 12.583 c 0,50.241 40.728,90.969 90.969,90.969 z" />
					<path
   style="fill:#9b5f00"
   inkscape:connector-curvature="0"
   id="path412"
   d="m 1826.473,1139.919 h 251.554 c 34.561,0 62.577,-28.017 62.577,-62.577 v 0 c 0,-34.562 -28.017,-62.578 -62.577,-62.578 h -251.554 c -34.561,0 -62.578,28.017 -62.578,62.578 v 0 c 0,34.56 28.017,62.577 62.578,62.577 z" />
				</g>
				<g
   id="g428">
					<path
   style="fill:#ec9e00"
   inkscape:connector-curvature="0"
   id="path416"
   d="m 1569.982,985.308 164.25,164.25 c 32.335,32.336 84.761,32.336 117.096,0 h 10e-4 c 32.335,-32.335 32.335,-84.761 0,-117.097 l -164.251,-164.25 c -32.335,-32.335 -84.761,-32.335 -117.096,0 v 0 c -32.336,32.335 -32.336,84.762 0,117.097 z" />
					<path
   style="fill:#c67f02"
   inkscape:connector-curvature="0"
   id="path418"
   d="m 1589.96,968.387 161.192,161.193 c 22.146,22.146 58.052,22.146 80.198,0 v -10e-4 c 22.146,-22.146 22.146,-58.052 0,-80.197 L 1670.158,888.19 c -22.146,-22.146 -58.052,-22.146 -80.197,0 h -10e-4 c -22.146,22.145 -22.146,58.051 0,80.197 z" />
					<path
   style="fill:#c67f02"
   inkscape:connector-curvature="0"
   id="path420"
   d="m 1589.96,968.387 161.192,161.193 c 22.146,22.146 58.052,22.146 80.198,0 v -10e-4 c 22.146,-22.146 22.146,-58.052 0,-80.197 L 1670.158,888.19 c -22.146,-22.146 -58.052,-22.146 -80.197,0 h -10e-4 c -22.146,22.145 -22.146,58.051 0,80.197 z" />
					<path
   style="fill:#ec9e00"
   inkscape:connector-curvature="0"
   id="path422"
   d="m 1604.446,948.271 166.823,166.823 c 12.591,12.59 33.004,12.59 45.595,0 v 0 c 12.591,-12.591 12.591,-33.004 0,-45.595 L 1650.041,902.675 c -12.591,-12.59 -33.004,-12.59 -45.595,0 v 0 c -12.591,12.591 -12.591,33.005 0,45.596 z" />
					<circle
   style="fill:#455576"
   id="circle424"
   r="58.41"
   cy="922.755"
   cx="1624.526" />
					<circle
   style="fill:#3392d6"
   id="circle426"
   r="36.348"
   cy="922.755"
   cx="1624.526" />
				</g>
				<g
   id="g444">
					<path
   style="fill:#455576"
   inkscape:connector-curvature="0"
   id="path430"
   d="m 1955.873,1121.313 h 108.07 c 10.701,0 19.376,-8.675 19.376,-19.376 v -49.192 c 0,-10.701 -8.675,-19.376 -19.376,-19.376 h -108.07 c -10.701,0 -19.376,8.675 -19.376,19.376 v 49.192 c 0,10.702 8.675,19.376 19.376,19.376 z" />
					<g
   id="g442">
						<path
   style="fill:#ec9e00"
   inkscape:connector-curvature="0"
   id="path432"
   d="m 2018.256,1077.342 25.027,25.027 25.028,-25.027 -25.028,-25.028 z m 25.027,13.939 -13.939,-13.939 13.939,-13.94 13.94,13.94 z" />
						<rect
   style="fill:#ec9e00"
   id="rect434"
   height="4.473"
   width="57.659"
   y="1054.549"
   x="1952.249" />
						<rect
   style="fill:#ec9e00"
   id="rect436"
   height="4.4720001"
   width="57.659"
   y="1066.9709"
   x="1952.249" />
						<rect
   style="fill:#ec9e00"
   id="rect438"
   height="4.4720001"
   width="57.659"
   y="1079.3929"
   x="1952.249" />
						<rect
   style="fill:#ec9e00"
   id="rect440"
   height="4.4720001"
   width="42.356998"
   y="1091.814"
   x="1967.551" />
					</g>
				</g>
				<circle
   style="fill:#455576"
   id="circle446"
   r="58.409"
   cy="641.25897"
   cx="1908.465" />
				<circle
   style="fill:#3392d6"
   id="circle448"
   r="36.348"
   cy="641.25897"
   cx="1908.465" />
				<g
   id="g464">
					<path
   style="fill:#455576"
   inkscape:connector-curvature="0"
   id="path450"
   d="m 1292.167,790.547 v 0 c 7.953,3.771 17.456,0.38 21.228,-7.573 l 41.579,-87.697 29.791,14.125 -41.579,87.697 c -3.771,7.953 -0.381,17.457 7.572,21.227 l 0.153,0.073 c 6.08,2.883 10.018,8.943 10.182,15.67 l 1.206,49.615 c 0.511,20.986 -7.297,41.322 -21.721,56.574 l -37.556,39.712 c -3.787,4.005 -9.723,5.118 -14.703,2.756 l -7.436,-3.525 c -7.193,-3.41 -9.527,-12.511 -4.863,-18.962 l 40.581,-56.132 c 3.527,-4.878 5.323,-10.796 5.103,-16.812 l -0.926,-25.28 c -0.369,-10.07 -6.313,-19.098 -15.419,-23.415 v 0 c -9.105,-4.317 -19.857,-3.206 -27.888,2.882 l -20.158,15.283 c -4.798,3.637 -8.242,8.773 -9.787,14.591 l -17.773,66.946 c -2.043,7.693 -10.565,11.646 -17.759,8.236 l -7.436,-3.525 c -4.98,-2.362 -7.876,-7.661 -7.172,-13.128 l 6.976,-54.211 c 2.68,-20.82 13.482,-39.736 30.053,-52.623 l 39.177,-30.468 c 5.31,-4.131 12.496,-4.918 18.575,-2.036 z" />
					<g
   id="g456">
						<path
   style="fill:#ec9e00"
   inkscape:connector-curvature="0"
   id="path452"
   d="m 1488.326,486.256 -172.153,172.153 c -29.001,29.002 -29.001,76.023 0,105.025 h 10e-4 c 29.002,29.002 76.023,29.002 105.025,0 l 172.152,-172.153 c 29.002,-29.002 29.002,-76.023 0,-105.025 v 0 c -29.001,-29.002 -76.023,-29.002 -105.025,0 z" />
						<path
   style="fill:#c67f02"
   inkscape:connector-curvature="0"
   id="path454"
   d="m 1501.739,505.938 -165.884,165.883 c -19.863,19.863 -19.863,52.067 0,71.93 v 0 c 19.863,19.863 52.067,19.863 71.931,0 l 165.883,-165.883 c 19.863,-19.863 19.863,-52.067 0,-71.931 v 0 c -19.862,-19.861 -52.067,-19.861 -71.93,10e-4 z" />
					</g>
					<g
   id="g462">
						<circle
   style="fill:#455576"
   id="circle458"
   r="52.091999"
   cy="706.19897"
   cx="1373.4091" />
						<circle
   style="fill:#3392d6"
   id="circle460"
   r="36.348"
   cy="706.19897"
   cx="1373.4091" />
					</g>
				</g>
				<polygon
   style="fill:#455576"
   id="polygon466"
   points="2072.141,1212.055 1955.254,1212.055 1838.367,1212.055 1816.009,1174.602 1955.254,1174.602 2094.499,1174.602 " />
				<polygon
   style="fill:#455576"
   id="polygon468"
   points="1838.367,1561.598 1955.254,1561.598 2072.141,1561.598 2094.499,1599.05 1955.254,1599.05 1816.009,1599.05 " />
				<rect
   style="fill:#3392d6"
   id="rect470"
   height="349.543"
   width="233.77299"
   y="1212.0551"
   x="1838.3669" />
				<rect
   style="fill:#f6b03e"
   id="rect472"
   height="102.663"
   width="278.48999"
   y="1599.05"
   x="1816.009" />
				<g
   id="g488">
					<polygon
   style="fill:#c67f02"
   id="polygon474"
   points="2094.499,1701.713 2072.141,1701.713 2043.283,1599.05 2065.643,1599.05 " />
					<polygon
   style="fill:#c67f02"
   id="polygon476"
   points="2049.284,1701.713 2026.926,1701.713 1998.069,1599.05 2020.428,1599.05 " />
					<polygon
   style="fill:#c67f02"
   id="polygon478"
   points="2094.73,1621.221 2094.73,1621.221 2088.498,1599.05 2094.499,1599.05 " />
					<polygon
   style="fill:#c67f02"
   id="polygon480"
   points="2004.07,1701.713 1981.711,1701.713 1952.854,1599.05 1975.214,1599.05 " />
					<polygon
   style="fill:#c67f02"
   id="polygon482"
   points="1958.254,1701.713 1935.896,1701.713 1907.039,1599.05 1929.397,1599.05 " />
					<polygon
   style="fill:#c67f02"
   id="polygon484"
   points="1912.438,1701.713 1890.079,1701.713 1861.223,1599.05 1883.582,1599.05 " />
					<polygon
   style="fill:#c67f02"
   id="polygon486"
   points="1866.622,1701.713 1844.264,1701.713 1815.407,1599.05 1837.766,1599.05 " />
				</g>
				<polygon
   style="fill:#c67f02"
   id="polygon490"
   points="1820.807,1701.713 1816.009,1701.713 1815.987,1691.816 1816.009,1684.643 " />
				<rect
   style="fill:#455576"
   id="rect492"
   height="349.543"
   width="148.17999"
   y="1212.0551"
   x="1881.1639" />
			</g>
			<g
   id="g514">
				<g
   id="g508">
					<rect
   style="fill:#ce6200"
   id="rect496"
   height="166.938"
   width="166.939"
   y="1055.472"
   x="1127.563" />
					<rect
   style="fill:#ec9e00"
   id="rect498"
   height="166.938"
   width="166.938"
   y="1055.472"
   x="1174.931" />
					<rect
   style="fill:#ce6200"
   id="rect500"
   height="18.160999"
   width="60.033001"
   y="1157.825"
   x="1266.847" />
					<rect
   style="fill:#ce6200"
   id="rect502"
   height="5.6420002"
   width="60.033001"
   y="1183.6851"
   x="1266.847" />
					<rect
   style="fill:#ce6200"
   id="rect504"
   height="5.6420002"
   width="60.033001"
   y="1194.2111"
   x="1266.847" />
					<rect
   style="fill:#ce6200"
   id="rect506"
   height="5.6420002"
   width="60.033001"
   y="1204.7371"
   x="1266.847" />
				</g>
				<polygon
   style="fill:#af5205"
   id="polygon510"
   points="1293.77,1055.472 1126.83,1055.472 1111.44,1011.457 1278.38,1011.457 " />
				<polygon
   style="fill:#cc8200"
   id="polygon512"
   points="1174.931,1055.472 1341.869,1055.472 1357.26,1011.457 1190.32,1011.457 " />
			</g>
			<g
   id="g534">
				<g
   id="g528">
					<rect
   style="fill:#ce6200"
   id="rect516"
   height="166.938"
   width="166.939"
   y="1055.472"
   x="829.07703" />
					<rect
   style="fill:#ec9e00"
   id="rect518"
   height="166.938"
   width="166.939"
   y="1055.472"
   x="876.44501" />
					<rect
   style="fill:#ce6200"
   id="rect520"
   height="18.160999"
   width="60.033001"
   y="1157.825"
   x="968.36102" />
					<rect
   style="fill:#ce6200"
   id="rect522"
   height="5.6420002"
   width="60.033001"
   y="1183.6851"
   x="968.36102" />
					<rect
   style="fill:#ce6200"
   id="rect524"
   height="5.6420002"
   width="60.033001"
   y="1194.2111"
   x="968.36102" />
					<rect
   style="fill:#ce6200"
   id="rect526"
   height="5.6420002"
   width="60.033001"
   y="1204.7371"
   x="968.36102" />
				</g>
				<polygon
   style="fill:#af5205"
   id="polygon530"
   points="995.284,1055.472 828.345,1055.472 812.955,1011.457 979.895,1011.457 " />
				<polygon
   style="fill:#cc8200"
   id="polygon532"
   points="876.445,1055.472 1043.385,1055.472 1058.774,1011.457 891.835,1011.457 " />
			</g>
		</g>
	</g><g
   id="fans">
		<g
   id="g541">
			<rect
   style="fill:#1a3151"
   x="0"
   id="rect539"
   height="68.962997"
   width="2272"
   y="123.43" />
		</g>
		<g
   id="g635">
			<g
   id="g587">
				<g
   id="g563">
					<path
   style="fill:#223e6d"
   inkscape:connector-curvature="0"
   id="path543"
   d="m 1728.858,207.616 c 0,-1.572 0.35,-3.125 1.039,-4.538 6.188,-12.695 9.664,-26.956 9.664,-42.03 0,-15.073 -3.476,-29.334 -9.664,-42.03 -0.689,-1.413 -1.039,-2.966 -1.039,-4.538 V 85.36 c 0,-5.781 -4.687,-10.467 -10.467,-10.467 h -30.015 c -1.509,0 -3.002,-0.323 -4.371,-0.96 -12.306,-5.73 -26.024,-8.936 -40.494,-8.936 -14.47,0 -28.188,3.205 -40.494,8.936 -1.369,0.637 -2.862,0.96 -4.371,0.96 h -31.629 c -5.781,0 -10.467,4.686 -10.467,10.467 v 32.599 c 0,1.445 -0.296,2.876 -0.882,4.197 -5.272,11.89 -8.207,25.047 -8.207,38.891 0,13.845 2.935,27.002 8.207,38.892 0.586,1.321 0.882,2.752 0.882,4.197 v 32.599 c 0,5.781 4.686,10.467 10.467,10.467 h 31.629 c 1.509,0 3.002,0.323 4.371,0.96 12.306,5.73 26.024,8.936 40.494,8.936 14.47,0 28.188,-3.205 40.494,-8.936 1.369,-0.637 2.862,-0.96 4.371,-0.96 h 30.015 c 5.78,0 10.467,-4.686 10.467,-10.467 z" />
					<circle
   style="fill:#bac3d2"
   id="circle545"
   r="68.190002"
   cy="161.048"
   cx="1643.512" />
					<g
   id="g549">
						<path
   style="fill:#223e6d"
   inkscape:connector-curvature="0"
   id="path547"
   d="m 1643.462,212.071 c -2.231,0 -4.041,-1.81 -4.041,-4.042 v -93.962 c 0,-2.232 1.81,-4.042 4.041,-4.042 2.232,0 4.042,1.81 4.042,4.042 v 93.962 c 0,2.232 -1.81,4.042 -4.042,4.042 z" />
					</g>
					<g
   id="g553">
						<path
   style="fill:#223e6d"
   inkscape:connector-curvature="0"
   id="path551"
   d="m 1592.439,161.048 c 0,-2.232 1.81,-4.041 4.042,-4.041 h 93.962 c 2.232,0 4.041,1.809 4.041,4.041 0,2.232 -1.809,4.042 -4.041,4.042 h -93.962 c -2.232,-0.001 -4.042,-1.81 -4.042,-4.042 z" />
					</g>
					<g
   id="g557">
						<path
   style="fill:#223e6d"
   inkscape:connector-curvature="0"
   id="path555"
   d="m 1607.384,197.126 c -1.578,-1.578 -1.578,-4.137 0,-5.715 l 66.441,-66.441 c 1.578,-1.579 4.137,-1.579 5.716,0 1.578,1.578 1.578,4.137 0,5.715 l -66.441,66.441 c -1.579,1.579 -4.138,1.579 -5.716,0 z" />
					</g>
					<g
   id="g561">
						<path
   style="fill:#223e6d"
   inkscape:connector-curvature="0"
   id="path559"
   d="m 1679.541,197.126 c -1.579,1.579 -4.138,1.579 -5.716,0 l -66.441,-66.441 c -1.578,-1.579 -1.578,-4.137 0,-5.715 1.578,-1.579 4.137,-1.579 5.716,0 l 66.441,66.441 c 1.578,1.578 1.578,4.137 0,5.715 z" />
					</g>
				</g>
				<g
   id="g585">
					<path
   style="fill:#223e6d"
   inkscape:connector-curvature="0"
   id="path565"
   d="m 1922.884,207.616 c 0,-1.572 0.35,-3.125 1.038,-4.538 6.188,-12.695 9.664,-26.956 9.664,-42.03 0,-15.073 -3.476,-29.334 -9.664,-42.03 -0.688,-1.413 -1.038,-2.966 -1.038,-4.538 V 85.36 c 0,-5.781 -4.687,-10.467 -10.467,-10.467 h -30.015 c -1.51,0 -3.003,-0.323 -4.371,-0.96 -12.306,-5.73 -26.025,-8.936 -40.495,-8.936 -14.469,0 -28.188,3.205 -40.494,8.936 -1.368,0.637 -2.861,0.96 -4.371,0.96 h -31.629 c -5.78,0 -10.467,4.686 -10.467,10.467 v 32.599 c 0,1.445 -0.296,2.876 -0.881,4.197 -5.273,11.89 -8.207,25.047 -8.207,38.891 0,13.845 2.934,27.002 8.207,38.892 0.585,1.321 0.881,2.752 0.881,4.197 v 32.599 c 0,5.781 4.687,10.467 10.467,10.467 h 31.629 c 1.51,0 3.003,0.323 4.371,0.96 12.306,5.73 26.025,8.936 40.494,8.936 14.47,0 28.189,-3.205 40.495,-8.936 1.368,-0.637 2.861,-0.96 4.371,-0.96 h 30.015 c 5.78,0 10.467,-4.686 10.467,-10.467 z" />
					<circle
   style="fill:#bac3d2"
   id="circle567"
   r="68.191002"
   cy="161.048"
   cx="1837.537" />
					<g
   id="g571">
						<path
   style="fill:#223e6d"
   inkscape:connector-curvature="0"
   id="path569"
   d="m 1837.487,212.071 c -2.232,0 -4.042,-1.81 -4.042,-4.042 v -93.962 c 0,-2.232 1.81,-4.042 4.042,-4.042 2.231,0 4.041,1.81 4.041,4.042 v 93.962 c 0,2.232 -1.809,4.042 -4.041,4.042 z" />
					</g>
					<g
   id="g575">
						<path
   style="fill:#223e6d"
   inkscape:connector-curvature="0"
   id="path573"
   d="m 1786.465,161.048 c 0,-2.232 1.809,-4.041 4.041,-4.041 h 93.963 c 2.231,0 4.041,1.809 4.041,4.041 0,2.232 -1.81,4.042 -4.041,4.042 h -93.963 c -2.233,-0.001 -4.041,-1.81 -4.041,-4.042 z" />
					</g>
					<g
   id="g579">
						<path
   style="fill:#223e6d"
   inkscape:connector-curvature="0"
   id="path577"
   d="m 1801.408,197.126 c -1.578,-1.578 -1.578,-4.137 0,-5.715 l 66.441,-66.441 c 1.579,-1.579 4.138,-1.579 5.716,0 1.578,1.578 1.578,4.137 0,5.715 l -66.441,66.441 c -1.578,1.579 -4.137,1.579 -5.716,0 z" />
					</g>
					<g
   id="g583">
						<path
   style="fill:#223e6d"
   inkscape:connector-curvature="0"
   id="path581"
   d="m 1873.565,197.126 c -1.578,1.579 -4.137,1.579 -5.716,0 l -66.441,-66.441 c -1.578,-1.579 -1.578,-4.137 0,-5.715 1.579,-1.579 4.138,-1.579 5.716,0 l 66.441,66.441 c 1.579,1.578 1.579,4.137 0,5.715 z" />
					</g>
				</g>
			</g>
			<g
   id="g633">
				<g
   id="g609">
					<path
   style="fill:#223e6d"
   inkscape:connector-curvature="0"
   id="path589"
   d="m 488.665,207.616 c 0,-1.572 0.35,-3.125 1.038,-4.538 6.189,-12.695 9.665,-26.956 9.665,-42.03 0,-15.073 -3.476,-29.334 -9.665,-42.03 -0.688,-1.413 -1.038,-2.966 -1.038,-4.538 V 85.36 c 0,-5.781 -4.687,-10.467 -10.467,-10.467 h -30.015 c -1.509,0 -3.002,-0.323 -4.371,-0.96 -12.306,-5.73 -26.025,-8.936 -40.495,-8.936 -14.469,0 -28.188,3.205 -40.495,8.936 -1.368,0.637 -2.861,0.96 -4.371,0.96 h -31.629 c -5.78,0 -10.467,4.686 -10.467,10.467 v 32.599 c 0,1.445 -0.295,2.876 -0.881,4.197 -5.273,11.89 -8.207,25.047 -8.207,38.891 0,13.845 2.934,27.002 8.207,38.892 0.585,1.321 0.881,2.752 0.881,4.197 v 32.599 c 0,5.781 4.687,10.467 10.467,10.467 h 31.629 c 1.51,0 3.003,0.323 4.371,0.96 12.306,5.73 26.025,8.936 40.495,8.936 14.47,0 28.189,-3.205 40.495,-8.936 1.368,-0.637 2.862,-0.96 4.371,-0.96 h 30.015 c 5.78,0 10.467,-4.686 10.467,-10.467 z" />
					<circle
   style="fill:#bac3d2"
   id="circle591"
   r="68.191002"
   cy="161.048"
   cx="403.31799" />
					<g
   id="g595">
						<path
   style="fill:#223e6d"
   inkscape:connector-curvature="0"
   id="path593"
   d="m 403.269,212.071 c -2.232,0 -4.042,-1.81 -4.042,-4.042 v -93.962 c 0,-2.232 1.809,-4.042 4.042,-4.042 2.232,0 4.042,1.81 4.042,4.042 v 93.962 c -10e-4,2.232 -1.811,4.042 -4.042,4.042 z" />
					</g>
					<g
   id="g599">
						<path
   style="fill:#223e6d"
   inkscape:connector-curvature="0"
   id="path597"
   d="m 352.246,161.048 c 0,-2.232 1.809,-4.041 4.041,-4.041 h 93.962 c 2.232,0 4.042,1.809 4.042,4.041 0,2.232 -1.809,4.042 -4.042,4.042 h -93.962 c -2.232,-0.001 -4.041,-1.81 -4.041,-4.042 z" />
					</g>
					<g
   id="g603">
						<path
   style="fill:#223e6d"
   inkscape:connector-curvature="0"
   id="path601"
   d="m 367.19,197.126 c -1.578,-1.578 -1.578,-4.137 0,-5.715 l 66.441,-66.441 c 1.579,-1.579 4.137,-1.579 5.715,0 1.579,1.578 1.579,4.137 0,5.715 l -66.441,66.441 c -1.578,1.579 -4.136,1.579 -5.715,0 z" />
					</g>
					<g
   id="g607">
						<path
   style="fill:#223e6d"
   inkscape:connector-curvature="0"
   id="path605"
   d="m 439.347,197.126 c -1.578,1.579 -4.137,1.579 -5.715,0 l -66.441,-66.441 c -1.578,-1.579 -1.578,-4.137 0,-5.715 1.579,-1.579 4.137,-1.579 5.715,0 l 66.441,66.441 c 1.578,1.578 1.578,4.137 0,5.715 z" />
					</g>
				</g>
				<g
   id="g631">
					<path
   style="fill:#223e6d"
   inkscape:connector-curvature="0"
   id="path611"
   d="m 682.69,207.616 c 0,-1.572 0.35,-3.125 1.039,-4.538 6.188,-12.695 9.664,-26.956 9.664,-42.03 0,-15.073 -3.476,-29.334 -9.664,-42.03 -0.689,-1.413 -1.039,-2.966 -1.039,-4.538 V 85.36 c 0,-5.781 -4.687,-10.467 -10.467,-10.467 h -30.015 c -1.509,0 -3.002,-0.323 -4.371,-0.96 -12.306,-5.73 -26.025,-8.936 -40.495,-8.936 -14.47,0 -28.188,3.205 -40.494,8.936 -1.369,0.637 -2.862,0.96 -4.372,0.96 h -31.628 c -5.781,0 -10.467,4.686 -10.467,10.467 v 32.599 c 0,1.445 -0.296,2.876 -0.881,4.197 -5.273,11.89 -8.207,25.047 -8.207,38.891 0,13.845 2.934,27.002 8.207,38.892 0.585,1.321 0.881,2.752 0.881,4.197 v 32.599 c 0,5.781 4.686,10.467 10.467,10.467 h 31.629 c 1.509,0 3.002,0.323 4.371,0.96 12.306,5.73 26.025,8.936 40.494,8.936 14.47,0 28.189,-3.205 40.495,-8.936 1.369,-0.637 2.862,-0.96 4.371,-0.96 h 30.015 c 5.78,0 10.467,-4.686 10.467,-10.467 z" />
					<circle
   style="fill:#bac3d2"
   id="circle613"
   r="68.191002"
   cy="161.048"
   cx="597.34302" />
					<g
   id="g617">
						<path
   style="fill:#223e6d"
   inkscape:connector-curvature="0"
   id="path615"
   d="m 597.293,212.071 c -2.232,0 -4.042,-1.81 -4.042,-4.042 v -93.962 c 0,-2.232 1.81,-4.042 4.042,-4.042 2.232,0 4.042,1.81 4.042,4.042 v 93.962 c 0,2.232 -1.81,4.042 -4.042,4.042 z" />
					</g>
					<g
   id="g621">
						<path
   style="fill:#223e6d"
   inkscape:connector-curvature="0"
   id="path619"
   d="m 546.271,161.048 c 0,-2.232 1.809,-4.041 4.041,-4.041 h 93.962 c 2.232,0 4.042,1.809 4.042,4.041 0,2.232 -1.809,4.042 -4.042,4.042 h -93.962 c -2.232,-0.001 -4.041,-1.81 -4.041,-4.042 z" />
					</g>
					<g
   id="g625">
						<path
   style="fill:#223e6d"
   inkscape:connector-curvature="0"
   id="path623"
   d="m 561.215,197.126 c -1.578,-1.578 -1.578,-4.137 0,-5.715 l 66.441,-66.441 c 1.579,-1.579 4.137,-1.579 5.716,0 1.578,1.578 1.578,4.137 0,5.715 l -66.442,66.441 c -1.578,1.579 -4.137,1.579 -5.715,0 z" />
					</g>
					<g
   id="g629">
						<path
   style="fill:#223e6d"
   inkscape:connector-curvature="0"
   id="path627"
   d="m 633.372,197.126 c -1.579,1.579 -4.137,1.579 -5.716,0 l -66.441,-66.441 c -1.578,-1.579 -1.578,-4.137 0,-5.715 1.579,-1.579 4.137,-1.579 5.715,0 l 66.442,66.441 c 1.578,1.578 1.578,4.137 0,5.715 z" />
					</g>
				</g>
			</g>
		</g>
	</g><g
   id="boxes">
		<path
   style="opacity:0.5;fill:#5a5a5a"
   inkscape:connector-curvature="0"
   id="path638"
   d="M 1764.381,1871.852 H 941.159 c -18.196,0 -32.947,-14.751 -32.947,-32.947 v 0 c 0,-18.195 14.751,-32.946 32.947,-32.946 h 823.222 c 18.196,0 32.947,14.751 32.947,32.946 v 0 c 0,18.196 -14.751,32.947 -32.947,32.947 z" />
		<g
   id="g656">
			<g
   id="g652">
				<rect
   style="fill:#ce6200"
   id="rect640"
   height="166.939"
   width="166.939"
   y="1678.838"
   x="964.633" />
				<rect
   style="fill:#ec9e00"
   id="rect642"
   height="166.939"
   width="166.939"
   y="1678.838"
   x="1012" />
				<rect
   style="fill:#ce6200"
   id="rect644"
   height="18.160999"
   width="60.033001"
   y="1781.192"
   x="1103.917" />
				<rect
   style="fill:#ce6200"
   id="rect646"
   height="5.6420002"
   width="60.033001"
   y="1807.052"
   x="1103.917" />
				<rect
   style="fill:#ce6200"
   id="rect648"
   height="5.6420002"
   width="60.033001"
   y="1817.578"
   x="1103.917" />
				<rect
   style="fill:#ce6200"
   id="rect650"
   height="5.6420002"
   width="60.033001"
   y="1828.104"
   x="1103.917" />
			</g>
			<rect
   style="fill:#f2ca8b"
   id="rect654"
   height="67.346001"
   width="102.511"
   y="1680.152"
   x="1041.705" />
		</g>
		<g
   id="g674">
			<g
   id="g670">
				<rect
   style="fill:#ce6200"
   id="rect658"
   height="166.939"
   width="166.938"
   y="1678.838"
   x="1535.579" />
				<rect
   style="fill:#ec9e00"
   id="rect660"
   height="166.939"
   width="166.938"
   y="1678.838"
   x="1582.947" />
				<rect
   style="fill:#ce6200"
   id="rect662"
   height="18.160999"
   width="60.033001"
   y="1781.192"
   x="1674.863" />
				<rect
   style="fill:#ce6200"
   id="rect664"
   height="5.6420002"
   width="60.033001"
   y="1807.052"
   x="1674.863" />
				<rect
   style="fill:#ce6200"
   id="rect666"
   height="5.6420002"
   width="60.033001"
   y="1817.578"
   x="1674.863" />
				<rect
   style="fill:#ce6200"
   id="rect668"
   height="5.6420002"
   width="60.033001"
   y="1828.104"
   x="1674.863" />
			</g>
			<rect
   style="fill:#f2ca8b"
   id="rect672"
   height="67.346001"
   width="102.512"
   y="1680.152"
   x="1612.65" />
		</g>
		<g
   id="g692">
			<g
   id="g688">
				<rect
   style="fill:#ce6200"
   id="rect676"
   height="166.939"
   width="166.939"
   y="1678.838"
   x="1354.239" />
				<rect
   style="fill:#ec9e00"
   id="rect678"
   height="166.939"
   width="166.939"
   y="1678.838"
   x="1401.6071" />
				<rect
   style="fill:#ce6200"
   id="rect680"
   height="18.160999"
   width="60.033001"
   y="1781.192"
   x="1493.5229" />
				<rect
   style="fill:#ce6200"
   id="rect682"
   height="5.6420002"
   width="60.033001"
   y="1807.052"
   x="1493.5229" />
				<rect
   style="fill:#ce6200"
   id="rect684"
   height="5.6420002"
   width="60.033001"
   y="1817.578"
   x="1493.5229" />
				<rect
   style="fill:#ce6200"
   id="rect686"
   height="5.6420002"
   width="60.033001"
   y="1828.104"
   x="1493.5229" />
			</g>
			<rect
   style="fill:#f2ca8b"
   id="rect690"
   height="67.346001"
   width="102.511"
   y="1680.152"
   x="1431.312" />
		</g>
		<g
   id="g710">
			<g
   id="g706">
				<rect
   style="fill:#ce6200"
   id="rect694"
   height="166.939"
   width="166.939"
   y="1678.838"
   x="1168.1021" />
				<rect
   style="fill:#ec9e00"
   id="rect696"
   height="166.939"
   width="166.938"
   y="1678.838"
   x="1215.47" />
				<rect
   style="fill:#ce6200"
   id="rect698"
   height="18.160999"
   width="60.033001"
   y="1781.192"
   x="1307.386" />
				<rect
   style="fill:#ce6200"
   id="rect700"
   height="5.6420002"
   width="60.033001"
   y="1807.052"
   x="1307.386" />
				<rect
   style="fill:#ce6200"
   id="rect702"
   height="5.6420002"
   width="60.033001"
   y="1817.578"
   x="1307.386" />
				<rect
   style="fill:#ce6200"
   id="rect704"
   height="5.6420002"
   width="60.033001"
   y="1828.104"
   x="1307.386" />
			</g>
			<rect
   style="fill:#f2ca8b"
   id="rect708"
   height="67.346001"
   width="102.511"
   y="1680.152"
   x="1245.174" />
		</g>
		<g
   id="g728">
			<g
   id="g724">
				<rect
   style="fill:#ce6200"
   id="rect712"
   height="166.938"
   width="166.939"
   y="1514.116"
   x="1491.635" />
				<rect
   style="fill:#ec9e00"
   id="rect714"
   height="166.938"
   width="166.939"
   y="1514.116"
   x="1539.0031" />
				<rect
   style="fill:#ce6200"
   id="rect716"
   height="18.160999"
   width="60.033001"
   y="1616.47"
   x="1630.9189" />
				<rect
   style="fill:#ce6200"
   id="rect718"
   height="5.6420002"
   width="60.033001"
   y="1642.329"
   x="1630.9189" />
				<rect
   style="fill:#ce6200"
   id="rect720"
   height="5.6420002"
   width="60.033001"
   y="1652.855"
   x="1630.9189" />
				<rect
   style="fill:#ce6200"
   id="rect722"
   height="5.6420002"
   width="60.033001"
   y="1663.382"
   x="1630.9189" />
			</g>
			<rect
   style="fill:#f2ca8b"
   id="rect726"
   height="67.346001"
   width="102.512"
   y="1515.4301"
   x="1568.707" />
		</g>
		<g
   id="g746">
			<g
   id="g742">
				<rect
   style="fill:#ce6200"
   id="rect730"
   height="166.938"
   width="166.939"
   y="1514.116"
   x="1090.366" />
				<rect
   style="fill:#ec9e00"
   id="rect732"
   height="166.938"
   width="166.938"
   y="1514.116"
   x="1137.734" />
				<rect
   style="fill:#ce6200"
   id="rect734"
   height="18.160999"
   width="60.033001"
   y="1616.47"
   x="1229.65" />
				<rect
   style="fill:#ce6200"
   id="rect736"
   height="5.6420002"
   width="60.033001"
   y="1642.329"
   x="1229.65" />
				<rect
   style="fill:#ce6200"
   id="rect738"
   height="5.6420002"
   width="60.033001"
   y="1652.855"
   x="1229.65" />
				<rect
   style="fill:#ce6200"
   id="rect740"
   height="5.6420002"
   width="60.033001"
   y="1663.382"
   x="1229.65" />
			</g>
			<rect
   style="fill:#f2ca8b"
   id="rect744"
   height="67.346001"
   width="102.512"
   y="1515.4301"
   x="1167.438" />
		</g>
	</g>
</svg>