<?xml version="1.0" encoding="UTF-8" standalone="no"?>
<!-- Created with Inkscape (http://www.inkscape.org/) -->

<svg
   xmlns:dc="http://purl.org/dc/elements/1.1/"
   xmlns:cc="http://creativecommons.org/ns#"
   xmlns:rdf="http://www.w3.org/1999/02/22-rdf-syntax-ns#"
   xmlns:svg="http://www.w3.org/2000/svg"
   xmlns="http://www.w3.org/2000/svg"
   xmlns:xlink="http://www.w3.org/1999/xlink"
   xmlns:sodipodi="http://sodipodi.sourceforge.net/DTD/sodipodi-0.dtd"
   xmlns:inkscape="http://www.inkscape.org/namespaces/inkscape"
   id="svg4581"
   sodipodi:docname="airliner.svg"
   viewBox="0 0 511.82 177.33"
   version="1.1"
   enable-background="new"
   inkscape:version="0.92.4 (5da689c313, 2019-01-14)">
  <defs
     id="defs4583">
    <linearGradient
       id="linearGradient7978">
      <stop
         id="stop7980"
         style="stop-color:#ff2727"
         offset="0" />
      <stop
         id="stop7982"
         style="stop-color:#800000"
         offset="1" />
    </linearGradient>
    <linearGradient
       id="linearGradient7746">
      <stop
         id="stop7748"
         style="stop-color:#333333"
         offset="0" />
      <stop
         id="stop7750"
         style="stop-color:#919191"
         offset="1" />
    </linearGradient>
    <linearGradient
       id="linearGradient7732">
      <stop
         id="stop7734"
         style="stop-color:#000000"
         offset="0" />
      <stop
         id="stop7736"
         style="stop-color:#000000;stop-opacity:0"
         offset="1" />
    </linearGradient>
    <linearGradient
       id="linearGradient4651">
      <stop
         id="stop4653"
         style="stop-color:#e6e6e6"
         offset="0" />
      <stop
         id="stop4655"
         style="stop-color:#414141"
         offset="1" />
    </linearGradient>
    <linearGradient
       id="linearGradient4626"
       inkscape:collect="always">
      <stop
         id="stop4628"
         style="stop-color:#5e5e5e"
         offset="0" />
      <stop
         id="stop4630"
         style="stop-color:#a2a2a2"
         offset="1" />
    </linearGradient>
    <linearGradient
       id="linearGradient4618"
       inkscape:collect="always">
      <stop
         id="stop4620"
         style="stop-color:#333333"
         offset="0" />
      <stop
         id="stop4622"
         style="stop-color:#b3b3b3"
         offset="1" />
    </linearGradient>
    <linearGradient
       id="linearGradient7730"
       y2="433.72"
       xlink:href="#linearGradient7732"
       gradientUnits="userSpaceOnUse"
       x2="263.56"
       gradientTransform="matrix(-1,0,0,1.0335,600.19184,-15.495)"
       y1="474.57"
       x1="263.92"
       inkscape:collect="always" />
    <linearGradient
       id="linearGradient7753"
       y2="437.94"
       xlink:href="#linearGradient7746"
       gradientUnits="userSpaceOnUse"
       x2="246.22"
       gradientTransform="matrix(-1,0,0,0.99341,600.19184,2.3887)"
       y1="455.6"
       x1="246.48"
       inkscape:collect="always" />
    <linearGradient
       id="linearGradient7898"
       y2="361.92"
       gradientUnits="userSpaceOnUse"
       x2="571.24"
       y1="346.27"
       x1="535.38"
       inkscape:collect="always"
       gradientTransform="matrix(-1,0,0,1,711.61984,0)">
      <stop
         id="stop4661"
         style="stop-color:#dedfdf"
         offset="0" />
      <stop
         id="stop4663"
         style="stop-color:#808b91"
         offset="1" />
    </linearGradient>
    <linearGradient
       id="linearGradient7901"
       y2="503.79"
       xlink:href="#linearGradient4651"
       gradientUnits="userSpaceOnUse"
       x2="264.64"
       y1="371.29"
       x1="236.07"
       inkscape:collect="always"
       gradientTransform="matrix(-1,0,0,1,711.61984,0)" />
    <linearGradient
       id="linearGradient7908"
       y2="435.39"
       xlink:href="#linearGradient4618"
       gradientUnits="userSpaceOnUse"
       x2="264.11"
       gradientTransform="matrix(-1,0,0,1,600.19184,-0.47889)"
       y1="461.11"
       x1="264.11"
       inkscape:collect="always" />
    <linearGradient
       id="linearGradient7911"
       y2="442.36"
       xlink:href="#linearGradient4626"
       gradientUnits="userSpaceOnUse"
       x2="292.05"
       gradientTransform="matrix(-1,0,0,1,600.38124,-0.53573)"
       y1="454.42"
       x1="292.05"
       inkscape:collect="always" />
    <filter
       id="filter7955"
       inkscape:collect="always">
      <feBlend
         id="feBlend7957"
         in2="BackgroundImage"
         mode="darken"
         inkscape:collect="always" />
    </filter>
    <linearGradient
       id="linearGradient7965"
       y2="450.29"
       xlink:href="#linearGradient4651"
       gradientUnits="userSpaceOnUse"
       x2="300.28"
       y1="433.51"
       x1="299.73"
       inkscape:collect="always"
       gradientTransform="matrix(-1,0,0,1,711.61984,0)" />
    <linearGradient
       id="linearGradient7984"
       y2="36.67"
       xlink:href="#linearGradient7978"
       gradientUnits="userSpaceOnUse"
       x2="493.71"
       y1="24.801"
       x1="421.49"
       inkscape:collect="always"
       gradientTransform="matrix(-1,0,0,1,511.01984,0)" />
    <linearGradient
       id="linearGradient7992"
       y2="407.13"
       xlink:href="#linearGradient7978"
       gradientUnits="userSpaceOnUse"
       x2="446.49"
       y1="407.13"
       x1="421.74"
       inkscape:collect="always"
       gradientTransform="matrix(-1,0,0,1,711.61984,0)" />
    <linearGradient
       inkscape:collect="always"
       xlink:href="#linearGradient4626"
       id="linearGradient1007"
       gradientUnits="userSpaceOnUse"
       gradientTransform="matrix(-1,0,0,1,711.80924,-0.53573)"
       x1="292.05"
       y1="454.42"
       x2="292.05"
       y2="442.36" />
    <linearGradient
       inkscape:collect="always"
       xlink:href="#linearGradient4618"
       id="linearGradient1009"
       gradientUnits="userSpaceOnUse"
       gradientTransform="matrix(-1,0,0,1,711.61984,-0.47889)"
       x1="264.11"
       y1="461.11"
       x2="264.11"
       y2="435.39" />
    <linearGradient
       inkscape:collect="always"
       xlink:href="#linearGradient7732"
       id="linearGradient1011"
       gradientUnits="userSpaceOnUse"
       gradientTransform="matrix(-1,0,0,1.0335,711.61984,-15.495)"
       x1="263.92"
       y1="474.57"
       x2="263.56"
       y2="433.72" />
    <linearGradient
       inkscape:collect="always"
       xlink:href="#linearGradient7746"
       id="linearGradient1013"
       gradientUnits="userSpaceOnUse"
       gradientTransform="matrix(-1,0,0,0.99341,711.61984,2.3887)"
       x1="246.48"
       y1="455.6"
       x2="246.22"
       y2="437.94" />
  </defs>
  <sodipodi:namedview
     id="base"
     bordercolor="#666666"
     inkscape:pageshadow="2"
     inkscape:window-y="-8"
     fit-margin-left="3"
     pagecolor="#ffffff"
     inkscape:window-height="945"
     inkscape:window-maximized="1"
     inkscape:zoom="0.98994949"
     inkscape:window-x="-8"
     showgrid="false"
     borderopacity="1.0"
     inkscape:current-layer="layer2"
     inkscape:cx="85.108967"
     inkscape:cy="248.64344"
     fit-margin-top="3"
     fit-margin-right="3"
     fit-margin-bottom="3"
     inkscape:window-width="1244"
     inkscape:pageopacity="0.0"
     inkscape:document-units="px" />
  <g
     id="layer2"
     style="filter:url(#filter7955)"
     inkscape:label="Layer"
     inkscape:groupmode="layer"
     transform="translate(-100.3 -291.75)">
    <g
       id="g7994"
       inkscape:export-ydpi="138.90952"
       inkscape:export-xdpi="138.90952"
       inkscape:export-filename="C:\Users\sagi\Dropbox\Agile\Airliner_horiz.png"
       transform="matrix(-1,0,0,1,711.61984,0)">
      <rect
         id="rect7706"
         style="fill:#333333"
         rx="1.3257999"
         ry="1.3257999"
         height="12.362"
         width="2.7679"
         y="450.13"
         x="358.91" />
      <rect
         id="rect7700"
         style="fill:none;stroke:#000000;stroke-width:0.25321999"
         rx="1.3257999"
         ry="1.3257999"
         height="10.761"
         width="7.9039001"
         y="398.41"
         x="442.12" />
      <rect
         id="rect7704"
         style="fill:#333333"
         rx="1.3257999"
         ry="1.3257999"
         height="10.089"
         width="2.7679"
         y="452.26999"
         x="146.52" />
      <path
         id="path4601"
         d="m 104.05,436.17 c 9.171,7.9254 23.234,13.132 45.962,13.132 48.487,0 235.37,7.5762 296.98,-1.0102 24.634,-3.4326 146.24,-30.426 149.5,-35.355 -6.8383,-8.465 -16.668,-13.637 -103.54,-19.193 -86.216,-5.5138 -297.49,-7.0711 -331.84,0 -32.889,6.7713 -66.245,34.501 -57.074,42.426 z"
         sodipodi:nodetypes="zsscssz"
         style="fill:url(#linearGradient7901)"
         inkscape:connector-curvature="0" />
      <path
         id="path7971"
         d="m 512.27,412.83 96.786,-9.4643 c -21.833,-3.4045 -81.616,1.6577 -96.786,9.4643 z"
         sodipodi:nodetypes="ccc"
         style="fill:#b3b3b3"
         inkscape:connector-curvature="0" />
      <path
         id="path4603"
         sodipodi:nodetypes="cssccc"
         d="m 471.1,392.54 c 0,0 18.317,-4.3531 21.852,-8.3937 3.5355,-4.0406 78.287,-89.904 81.822,-89.398 3.5355,0.50508 29.8,1.0102 29.8,1.0102 l -46.21,103.79 c -26.659,-3.1219 -55.886,-5.236 -87.26,-7.0111 z"
         style="fill:url(#linearGradient7898)"
         inkscape:connector-curvature="0" />
      <path
         id="path4675"
         d="m 210.62,446.27 c -1.4935,-3.1701 0.25253,-7.3236 4.2931,-9.5964 4.04057,-2.2728 200.82,2.5427 200.82,2.5427 l 6.6942,6.2185 -27.791,3.0753 c 0,0 -144.9,5.98 -164.83,3.0633 -10.354,-1.5152 -12.576,-0.81414 -19.193,-5.3033 z"
         sodipodi:nodetypes="cscccsc"
         style="fill:url(#linearGradient7965)"
         inkscape:connector-curvature="0" />
      <g
         id="g4812"
         transform="translate(126.52,0.25254)">
        <rect
           id="rect4814"
           style="fill:#808080"
           rx="1.3257999"
           ry="1.3257999"
           height="3.5355"
           width="2.6517"
           y="418.48999"
           x="199.85001" />
        <rect
           id="rect4816"
           style="fill:#808080"
           rx="1.3257999"
           ry="1.3257999"
           height="3.5355"
           width="2.6517"
           y="418.48999"
           x="195.78" />
        <rect
           id="rect4818"
           style="fill:#808080"
           rx="1.3257999"
           ry="1.3257999"
           height="3.5355"
           width="2.6517"
           y="418.48999"
           x="191.71001" />
        <rect
           id="rect4820"
           style="fill:#808080"
           rx="1.3257999"
           ry="1.3257999"
           height="3.5355"
           width="2.6517"
           y="418.48999"
           x="187.64" />
        <rect
           id="rect4822"
           style="fill:#808080"
           rx="1.3257999"
           ry="1.3257999"
           height="3.5355"
           width="2.6517"
           y="418.48999"
           x="183.56" />
        <rect
           id="rect4824"
           style="fill:#808080"
           rx="1.3257999"
           ry="1.3257999"
           height="3.5355"
           width="2.6517"
           y="418.48999"
           x="179.49001" />
        <rect
           id="rect4826"
           style="fill:#808080"
           rx="1.3257999"
           ry="1.3257999"
           height="3.5355"
           width="2.6517"
           y="418.48999"
           x="175.42" />
        <rect
           id="rect4828"
           style="fill:#808080"
           rx="1.3257999"
           ry="1.3257999"
           height="3.5355"
           width="2.6517"
           y="418.48999"
           x="171.35001" />
        <rect
           id="rect4830"
           style="fill:#808080"
           rx="1.3257999"
           ry="1.3257999"
           height="3.5355"
           width="2.6517"
           y="418.48999"
           x="167.27" />
        <rect
           id="rect4832"
           style="fill:#808080"
           rx="1.3257999"
           ry="1.3257999"
           height="3.5355"
           width="2.6517"
           y="418.48999"
           x="163.2" />
        <rect
           id="rect4834"
           style="fill:#808080"
           rx="1.3257999"
           ry="1.3257999"
           height="3.5355"
           width="2.6517"
           y="418.48999"
           x="159.13" />
        <rect
           id="rect4836"
           style="fill:#808080"
           rx="1.3257999"
           ry="1.3257999"
           height="3.5355"
           width="2.6517"
           y="418.48999"
           x="155.06" />
        <rect
           id="rect4838"
           style="fill:#808080"
           rx="1.3257999"
           ry="1.3257999"
           height="3.5355"
           width="2.6517"
           y="418.48999"
           x="203.92" />
      </g>
      <path
         id="path4607"
         d="M 224.01,438.25 402.3,409.966 h 34.85 l -91.419,34.345 z"
         style="fill:#43484c"
         inkscape:connector-curvature="0" />
      <path
         id="path4609"
         d="m 421.74,409.91 12.627,8.0812 h 6.0609 l -2.5254,-9.0914 8.5863,-12.627 h -7.0711 z"
         style="fill:url(#linearGradient7992)"
         inkscape:connector-curvature="0" />
      <path
         id="path7914"
         d="m 224.13,438.19 33.966,17.551 -0.63135,-15.871 z"
         sodipodi:nodetypes="cccc"
         style="fill:#1a1a1a"
         inkscape:connector-curvature="0" />
      <path
         id="path4667"
         d="m 116.42,418.11 h 14.395 l -1.389,-4.672 h -7.3236 c 0,0 -3.0305,0.75761 -4.2932,2.2728 -1.2627,1.51519 -1.389,2.3991 -1.389,2.3991 z"
         style="fill:#666666"
         inkscape:connector-curvature="0" />
      <circle
         id="path4669"
         style="fill:#000000"
         cx="147.73482"
         cy="461.29666"
         r="4.6719556" />
      <path
         id="path4673"
         style="fill:#b3b3b3"
         sodipodi:type="inkscape:offset"
         d="m 147.75,458.67578 c -1.48019,0 -2.63672,1.14184 -2.63672,2.60547 0,1.46363 1.17309,2.63672 2.63672,2.63672 1.46363,0 2.60547,-1.15653 2.60547,-2.63672 0,-1.48019 -1.12528,-2.60547 -2.60547,-2.60547 z"
         inkscape:original="M 147.75 456.625 C 145.16975 456.625 143.0625 458.701 143.0625 461.28125 C 143.0625 463.8615 145.16975 465.96875 147.75 465.96875 C 150.33025 465.96875 152.40625 463.8615 152.40625 461.28125 C 152.40625 458.701 150.33025 456.625 147.75 456.625 z "
         inkscape:radius="-2.0508895" />
      <rect
         id="rect7967"
         style="fill:#414141"
         rx="1.3257999"
         ry="1.3257999"
         height="11.238"
         width="4.1669002"
         y="451.14999"
         x="325.95001" />
      <g
         id="g4685"
         transform="translate(174.41,0.11095)">
        <circle
           id="path4687"
           style="fill:#000000"
           cx="147.73482"
           cy="461.29666"
           r="4.6719556" />
        <path
           id="path4689"
           style="fill:#b3b3b3"
           sodipodi:type="inkscape:offset"
           d="m 147.75,458.67578 c -1.48019,0 -2.63672,1.14184 -2.63672,2.60547 0,1.46363 1.17309,2.63672 2.63672,2.63672 1.46363,0 2.60547,-1.15653 2.60547,-2.63672 0,-1.48019 -1.12528,-2.60547 -2.60547,-2.60547 z"
           inkscape:original="M 147.75 456.625 C 145.16975 456.625 143.0625 458.701 143.0625 461.28125 C 143.0625 463.8615 145.16975 465.96875 147.75 465.96875 C 150.33025 465.96875 152.40625 463.8615 152.40625 461.28125 C 152.40625 458.701 150.33025 456.625 147.75 456.625 z "
           inkscape:radius="-2.0508895" />
      </g>
      <g
         id="g4691"
         transform="translate(185.66,0.11095)">
        <circle
           id="path4693"
           style="fill:#000000"
           cx="147.73482"
           cy="461.29666"
           r="4.6719556" />
        <path
           id="path4695"
           style="fill:#b3b3b3"
           sodipodi:type="inkscape:offset"
           d="m 147.75,458.67578 c -1.48019,0 -2.63672,1.14184 -2.63672,2.60547 0,1.46363 1.17309,2.63672 2.63672,2.63672 1.46363,0 2.60547,-1.15653 2.60547,-2.63672 0,-1.48019 -1.12528,-2.60547 -2.60547,-2.60547 z"
           inkscape:original="M 147.75 456.625 C 145.16975 456.625 143.0625 458.701 143.0625 461.28125 C 143.0625 463.8615 145.16975 465.96875 147.75 465.96875 C 150.33025 465.96875 152.40625 463.8615 152.40625 461.28125 C 152.40625 458.701 150.33025 456.625 147.75 456.625 z "
           inkscape:radius="-2.0508895" />
      </g>
      <rect
         id="rect7969"
         ry="1.3257999"
         style="fill:#333333"
         rx="1.3257999"
         transform="rotate(90)"
         height="25.242001"
         width="2.7679"
         y="-373.67001"
         x="459.97" />
      <g
         id="g4697"
         transform="translate(201.55,0.11095)">
        <circle
           id="path4699"
           style="fill:#000000"
           cx="147.73482"
           cy="461.29666"
           r="4.6719556" />
        <path
           id="path4701"
           style="fill:#b3b3b3"
           sodipodi:type="inkscape:offset"
           d="m 147.75,458.67578 c -1.48019,0 -2.63672,1.14184 -2.63672,2.60547 0,1.46363 1.17309,2.63672 2.63672,2.63672 1.46363,0 2.60547,-1.15653 2.60547,-2.63672 0,-1.48019 -1.12528,-2.60547 -2.60547,-2.60547 z"
           inkscape:original="M 147.75 456.625 C 145.16975 456.625 143.0625 458.701 143.0625 461.28125 C 143.0625 463.8615 145.16975 465.96875 147.75 465.96875 C 150.33025 465.96875 152.40625 463.8615 152.40625 461.28125 C 152.40625 458.701 150.33025 456.625 147.75 456.625 z "
           inkscape:radius="-2.0508895" />
      </g>
      <g
         id="g4703"
         transform="translate(212.62,0.11095)">
        <circle
           id="path4705"
           style="fill:#000000"
           cx="147.73482"
           cy="461.29666"
           r="4.6719556" />
        <path
           id="path4707"
           style="fill:#b3b3b3"
           sodipodi:type="inkscape:offset"
           d="m 147.75,458.67578 c -1.48019,0 -2.63672,1.14184 -2.63672,2.60547 0,1.46363 1.17309,2.63672 2.63672,2.63672 1.46363,0 2.60547,-1.15653 2.60547,-2.63672 0,-1.48019 -1.12528,-2.60547 -2.60547,-2.60547 z"
           inkscape:original="M 147.75 456.625 C 145.16975 456.625 143.0625 458.701 143.0625 461.28125 C 143.0625 463.8615 145.16975 465.96875 147.75 465.96875 C 150.33025 465.96875 152.40625 463.8615 152.40625 461.28125 C 152.40625 458.701 150.33025 456.625 147.75 456.625 z "
           inkscape:radius="-2.0508895" />
      </g>
      <g
         id="g4709"
         transform="translate(224.23,0.11095)">
        <circle
           id="path4711"
           style="fill:#000000"
           cx="147.73482"
           cy="461.29666"
           r="4.6719556" />
        <path
           id="path4713"
           style="fill:#b3b3b3"
           sodipodi:type="inkscape:offset"
           d="m 147.75,458.67578 c -1.48019,0 -2.63672,1.14184 -2.63672,2.60547 0,1.46363 1.17309,2.63672 2.63672,2.63672 1.46363,0 2.60547,-1.15653 2.60547,-2.63672 0,-1.48019 -1.12528,-2.60547 -2.60547,-2.60547 z"
           inkscape:original="M 147.75 456.625 C 145.16975 456.625 143.0625 458.701 143.0625 461.28125 C 143.0625 463.8615 145.16975 465.96875 147.75 465.96875 C 150.33025 465.96875 152.40625 463.8615 152.40625 461.28125 C 152.40625 458.701 150.33025 456.625 147.75 456.625 z "
           inkscape:radius="-2.0508895" />
      </g>
      <g
         id="g4741">
        <rect
           id="rect4715"
           style="fill:#808080"
           rx="1.3257999"
           ry="1.3257999"
           height="3.5355"
           width="2.6517"
           y="418.48999"
           x="199.85001" />
        <rect
           id="rect4717"
           style="fill:#808080"
           rx="1.3257999"
           ry="1.3257999"
           height="3.5355"
           width="2.6517"
           y="418.48999"
           x="195.78" />
        <rect
           id="rect4719"
           style="fill:#808080"
           rx="1.3257999"
           ry="1.3257999"
           height="3.5355"
           width="2.6517"
           y="418.48999"
           x="191.71001" />
        <rect
           id="rect4721"
           style="fill:#808080"
           rx="1.3257999"
           ry="1.3257999"
           height="3.5355"
           width="2.6517"
           y="418.48999"
           x="187.64" />
        <rect
           id="rect4723"
           style="fill:#808080"
           rx="1.3257999"
           ry="1.3257999"
           height="3.5355"
           width="2.6517"
           y="418.48999"
           x="183.56" />
        <rect
           id="rect4725"
           style="fill:#808080"
           rx="1.3257999"
           ry="1.3257999"
           height="3.5355"
           width="2.6517"
           y="418.48999"
           x="179.49001" />
        <rect
           id="rect4727"
           style="fill:#808080"
           rx="1.3257999"
           ry="1.3257999"
           height="3.5355"
           width="2.6517"
           y="418.48999"
           x="175.42" />
        <rect
           id="rect4729"
           style="fill:#808080"
           rx="1.3257999"
           ry="1.3257999"
           height="3.5355"
           width="2.6517"
           y="418.48999"
           x="171.35001" />
        <rect
           id="rect4731"
           style="fill:#808080"
           rx="1.3257999"
           ry="1.3257999"
           height="3.5355"
           width="2.6517"
           y="418.48999"
           x="167.27" />
        <rect
           id="rect4733"
           style="fill:#808080"
           rx="1.3257999"
           ry="1.3257999"
           height="3.5355"
           width="2.6517"
           y="418.48999"
           x="163.2" />
        <rect
           id="rect4735"
           style="fill:#808080"
           rx="1.3257999"
           ry="1.3257999"
           height="3.5355"
           width="2.6517"
           y="418.48999"
           x="159.13" />
        <rect
           id="rect4737"
           style="fill:#808080"
           rx="1.3257999"
           ry="1.3257999"
           height="3.5355"
           width="2.6517"
           y="418.48999"
           x="155.06" />
        <rect
           id="rect4739"
           style="fill:#808080"
           rx="1.3257999"
           ry="1.3257999"
           height="3.5355"
           width="2.6517"
           y="418.48999"
           x="203.92" />
      </g>
      <g
         id="g4756"
         transform="translate(30.557,-17.678)">
        <rect
           id="rect4758"
           style="fill:#808080"
           rx="1.3257999"
           ry="1.3257999"
           height="3.5355"
           width="2.6517"
           y="418.48999"
           x="199.85001" />
        <rect
           id="rect4760"
           style="fill:#808080"
           rx="1.3257999"
           ry="1.3257999"
           height="3.5355"
           width="2.6517"
           y="418.48999"
           x="195.78" />
        <rect
           id="rect4762"
           style="fill:#808080"
           rx="1.3257999"
           ry="1.3257999"
           height="3.5355"
           width="2.6517"
           y="418.48999"
           x="191.71001" />
        <rect
           id="rect4764"
           style="fill:#808080"
           rx="1.3257999"
           ry="1.3257999"
           height="3.5355"
           width="2.6517"
           y="418.48999"
           x="187.64" />
        <rect
           id="rect4766"
           style="fill:#808080"
           rx="1.3257999"
           ry="1.3257999"
           height="3.5355"
           width="2.6517"
           y="418.48999"
           x="183.56" />
        <rect
           id="rect4768"
           style="fill:#808080"
           rx="1.3257999"
           ry="1.3257999"
           height="3.5355"
           width="2.6517"
           y="418.48999"
           x="179.49001" />
        <rect
           id="rect4770"
           style="fill:#808080"
           rx="1.3257999"
           ry="1.3257999"
           height="3.5355"
           width="2.6517"
           y="418.48999"
           x="175.42" />
        <rect
           id="rect4772"
           style="fill:#808080"
           rx="1.3257999"
           ry="1.3257999"
           height="3.5355"
           width="2.6517"
           y="418.48999"
           x="171.35001" />
        <rect
           id="rect4774"
           style="fill:#808080"
           rx="1.3257999"
           ry="1.3257999"
           height="3.5355"
           width="2.6517"
           y="418.48999"
           x="167.27" />
        <rect
           id="rect4776"
           style="fill:#808080"
           rx="1.3257999"
           ry="1.3257999"
           height="3.5355"
           width="2.6517"
           y="418.48999"
           x="163.2" />
        <rect
           id="rect4778"
           style="fill:#808080"
           rx="1.3257999"
           ry="1.3257999"
           height="3.5355"
           width="2.6517"
           y="418.48999"
           x="159.13" />
        <rect
           id="rect4780"
           style="fill:#808080"
           rx="1.3257999"
           ry="1.3257999"
           height="3.5355"
           width="2.6517"
           y="418.48999"
           x="155.06" />
        <rect
           id="rect4782"
           style="fill:#808080"
           rx="1.3257999"
           ry="1.3257999"
           height="3.5355"
           width="2.6517"
           y="418.48999"
           x="203.92" />
      </g>
      <g
         id="g4784"
         transform="translate(70.458,0.25254)">
        <rect
           id="rect4786"
           style="fill:#808080"
           rx="1.3257999"
           ry="1.3257999"
           height="3.5355"
           width="2.6517"
           y="418.48999"
           x="199.85001" />
        <rect
           id="rect4788"
           style="fill:#808080"
           rx="1.3257999"
           ry="1.3257999"
           height="3.5355"
           width="2.6517"
           y="418.48999"
           x="195.78" />
        <rect
           id="rect4790"
           style="fill:#808080"
           rx="1.3257999"
           ry="1.3257999"
           height="3.5355"
           width="2.6517"
           y="418.48999"
           x="191.71001" />
        <rect
           id="rect4792"
           style="fill:#808080"
           rx="1.3257999"
           ry="1.3257999"
           height="3.5355"
           width="2.6517"
           y="418.48999"
           x="187.64" />
        <rect
           id="rect4794"
           style="fill:#808080"
           rx="1.3257999"
           ry="1.3257999"
           height="3.5355"
           width="2.6517"
           y="418.48999"
           x="183.56" />
        <rect
           id="rect4796"
           style="fill:#808080"
           rx="1.3257999"
           ry="1.3257999"
           height="3.5355"
           width="2.6517"
           y="418.48999"
           x="179.49001" />
        <rect
           id="rect4798"
           style="fill:#808080"
           rx="1.3257999"
           ry="1.3257999"
           height="3.5355"
           width="2.6517"
           y="418.48999"
           x="175.42" />
        <rect
           id="rect4800"
           style="fill:#808080"
           rx="1.3257999"
           ry="1.3257999"
           height="3.5355"
           width="2.6517"
           y="418.48999"
           x="171.35001" />
        <rect
           id="rect4802"
           style="fill:#808080"
           rx="1.3257999"
           ry="1.3257999"
           height="3.5355"
           width="2.6517"
           y="418.48999"
           x="167.27" />
        <rect
           id="rect4804"
           style="fill:#808080"
           rx="1.3257999"
           ry="1.3257999"
           height="3.5355"
           width="2.6517"
           y="418.48999"
           x="163.2" />
        <rect
           id="rect4806"
           style="fill:#808080"
           rx="1.3257999"
           ry="1.3257999"
           height="3.5355"
           width="2.6517"
           y="418.48999"
           x="159.13" />
        <rect
           id="rect4808"
           style="fill:#808080"
           rx="1.3257999"
           ry="1.3257999"
           height="3.5355"
           width="2.6517"
           y="418.48999"
           x="155.06" />
        <rect
           id="rect4810"
           style="fill:#808080"
           rx="1.3257999"
           ry="1.3257999"
           height="3.5355"
           width="2.6517"
           y="418.48999"
           x="203.92" />
      </g>
      <g
         id="g4868"
         transform="translate(104.3,-17.678)">
        <rect
           id="rect4870"
           style="fill:#808080"
           rx="1.3257999"
           ry="1.3257999"
           height="3.5355"
           width="2.6517"
           y="418.48999"
           x="199.85001" />
        <rect
           id="rect4872"
           style="fill:#808080"
           rx="1.3257999"
           ry="1.3257999"
           height="3.5355"
           width="2.6517"
           y="418.48999"
           x="195.78" />
        <rect
           id="rect4874"
           style="fill:#808080"
           rx="1.3257999"
           ry="1.3257999"
           height="3.5355"
           width="2.6517"
           y="418.48999"
           x="191.71001" />
        <rect
           id="rect4876"
           style="fill:#808080"
           rx="1.3257999"
           ry="1.3257999"
           height="3.5355"
           width="2.6517"
           y="418.48999"
           x="187.64" />
        <rect
           id="rect4878"
           style="fill:#808080"
           rx="1.3257999"
           ry="1.3257999"
           height="3.5355"
           width="2.6517"
           y="418.48999"
           x="183.56" />
        <rect
           id="rect4880"
           style="fill:#808080"
           rx="1.3257999"
           ry="1.3257999"
           height="3.5355"
           width="2.6517"
           y="418.48999"
           x="179.49001" />
        <rect
           id="rect4882"
           style="fill:#808080"
           rx="1.3257999"
           ry="1.3257999"
           height="3.5355"
           width="2.6517"
           y="418.48999"
           x="175.42" />
        <rect
           id="rect4884"
           style="fill:#808080"
           rx="1.3257999"
           ry="1.3257999"
           height="3.5355"
           width="2.6517"
           y="418.48999"
           x="171.35001" />
        <rect
           id="rect4886"
           style="fill:#808080"
           rx="1.3257999"
           ry="1.3257999"
           height="3.5355"
           width="2.6517"
           y="418.48999"
           x="167.27" />
        <rect
           id="rect4888"
           style="fill:#808080"
           rx="1.3257999"
           ry="1.3257999"
           height="3.5355"
           width="2.6517"
           y="418.48999"
           x="163.2" />
        <rect
           id="rect4890"
           style="fill:#808080"
           rx="1.3257999"
           ry="1.3257999"
           height="3.5355"
           width="2.6517"
           y="418.48999"
           x="159.13" />
        <rect
           id="rect4892"
           style="fill:#808080"
           rx="1.3257999"
           ry="1.3257999"
           height="3.5355"
           width="2.6517"
           y="418.48999"
           x="155.06" />
        <rect
           id="rect4894"
           style="fill:#808080"
           rx="1.3257999"
           ry="1.3257999"
           height="3.5355"
           width="2.6517"
           y="418.48999"
           x="203.92" />
      </g>
      <g
         id="g4896"
         transform="translate(157.58,-17.678)">
        <rect
           id="rect4898"
           style="fill:#808080"
           rx="1.3257999"
           ry="1.3257999"
           height="3.5355"
           width="2.6517"
           y="418.48999"
           x="199.85001" />
        <rect
           id="rect4900"
           style="fill:#808080"
           rx="1.3257999"
           ry="1.3257999"
           height="3.5355"
           width="2.6517"
           y="418.48999"
           x="195.78" />
        <rect
           id="rect4902"
           style="fill:#808080"
           rx="1.3257999"
           ry="1.3257999"
           height="3.5355"
           width="2.6517"
           y="418.48999"
           x="191.71001" />
        <rect
           id="rect4904"
           style="fill:#808080"
           rx="1.3257999"
           ry="1.3257999"
           height="3.5355"
           width="2.6517"
           y="418.48999"
           x="187.64" />
        <rect
           id="rect4906"
           style="fill:#808080"
           rx="1.3257999"
           ry="1.3257999"
           height="3.5355"
           width="2.6517"
           y="418.48999"
           x="183.56" />
        <rect
           id="rect4908"
           style="fill:#808080"
           rx="1.3257999"
           ry="1.3257999"
           height="3.5355"
           width="2.6517"
           y="418.48999"
           x="179.49001" />
        <rect
           id="rect4910"
           style="fill:#808080"
           rx="1.3257999"
           ry="1.3257999"
           height="3.5355"
           width="2.6517"
           y="418.48999"
           x="175.42" />
        <rect
           id="rect4912"
           style="fill:#808080"
           rx="1.3257999"
           ry="1.3257999"
           height="3.5355"
           width="2.6517"
           y="418.48999"
           x="171.35001" />
        <rect
           id="rect4914"
           style="fill:#808080"
           rx="1.3257999"
           ry="1.3257999"
           height="3.5355"
           width="2.6517"
           y="418.48999"
           x="167.27" />
        <rect
           id="rect4916"
           style="fill:#808080"
           rx="1.3257999"
           ry="1.3257999"
           height="3.5355"
           width="2.6517"
           y="418.48999"
           x="163.2" />
        <rect
           id="rect4918"
           style="fill:#808080"
           rx="1.3257999"
           ry="1.3257999"
           height="3.5355"
           width="2.6517"
           y="418.48999"
           x="159.13" />
        <rect
           id="rect4920"
           style="fill:#808080"
           rx="1.3257999"
           ry="1.3257999"
           height="3.5355"
           width="2.6517"
           y="418.48999"
           x="155.06" />
        <rect
           id="rect4922"
           style="fill:#808080"
           rx="1.3257999"
           ry="1.3257999"
           height="3.5355"
           width="2.6517"
           y="418.48999"
           x="203.92" />
      </g>
      <g
         id="g4926"
         transform="translate(211.63,-17.678)">
        <rect
           id="rect4928"
           style="fill:#808080"
           rx="1.3257999"
           ry="1.3257999"
           height="3.5355"
           width="2.6517"
           y="418.48999"
           x="199.85001" />
        <rect
           id="rect4930"
           style="fill:#808080"
           rx="1.3257999"
           ry="1.3257999"
           height="3.5355"
           width="2.6517"
           y="418.48999"
           x="195.78" />
        <rect
           id="rect4932"
           style="fill:#808080"
           rx="1.3257999"
           ry="1.3257999"
           height="3.5355"
           width="2.6517"
           y="418.48999"
           x="191.71001" />
        <rect
           id="rect4934"
           style="fill:#808080"
           rx="1.3257999"
           ry="1.3257999"
           height="3.5355"
           width="2.6517"
           y="418.48999"
           x="187.64" />
        <rect
           id="rect4936"
           style="fill:#808080"
           rx="1.3257999"
           ry="1.3257999"
           height="3.5355"
           width="2.6517"
           y="418.48999"
           x="183.56" />
        <rect
           id="rect4938"
           style="fill:#808080"
           rx="1.3257999"
           ry="1.3257999"
           height="3.5355"
           width="2.6517"
           y="418.48999"
           x="179.49001" />
        <rect
           id="rect4940"
           style="fill:#808080"
           rx="1.3257999"
           ry="1.3257999"
           height="3.5355"
           width="2.6517"
           y="418.48999"
           x="175.42" />
        <rect
           id="rect4942"
           style="fill:#808080"
           rx="1.3257999"
           ry="1.3257999"
           height="3.5355"
           width="2.6517"
           y="418.48999"
           x="171.35001" />
        <rect
           id="rect4944"
           style="fill:#808080"
           rx="1.3257999"
           ry="1.3257999"
           height="3.5355"
           width="2.6517"
           y="418.48999"
           x="167.27" />
        <rect
           id="rect4946"
           style="fill:#808080"
           rx="1.3257999"
           ry="1.3257999"
           height="3.5355"
           width="2.6517"
           y="418.48999"
           x="163.2" />
        <rect
           id="rect4948"
           style="fill:#808080"
           rx="1.3257999"
           ry="1.3257999"
           height="3.5355"
           width="2.6517"
           y="418.48999"
           x="159.13" />
        <rect
           id="rect4950"
           style="fill:#808080"
           rx="1.3257999"
           ry="1.3257999"
           height="3.5355"
           width="2.6517"
           y="418.48999"
           x="155.06" />
        <rect
           id="rect4952"
           style="fill:#808080"
           rx="1.3257999"
           ry="1.3257999"
           height="3.5355"
           width="2.6517"
           y="418.48999"
           x="203.92" />
      </g>
      <g
         id="g4954"
         style="fill:#666666"
         transform="translate(267.69)">
        <rect
           id="rect4956"
           style="fill:#666666"
           rx="1.3257999"
           ry="1.3257999"
           height="3.5355"
           width="2.6517"
           y="418.48999"
           x="199.85001" />
        <rect
           id="rect4958"
           style="fill:#666666"
           rx="1.3257999"
           ry="1.3257999"
           height="3.5355"
           width="2.6517"
           y="418.48999"
           x="195.78" />
        <rect
           id="rect4960"
           style="fill:#666666"
           rx="1.3257999"
           ry="1.3257999"
           height="3.5355"
           width="2.6517"
           y="418.48999"
           x="191.71001" />
        <rect
           id="rect4962"
           style="fill:#666666"
           rx="1.3257999"
           ry="1.3257999"
           height="3.5355"
           width="2.6517"
           y="418.48999"
           x="187.64" />
        <rect
           id="rect4964"
           style="fill:#666666"
           rx="1.3257999"
           ry="1.3257999"
           height="3.5355"
           width="2.6517"
           y="418.48999"
           x="183.56" />
        <rect
           id="rect4966"
           style="fill:#666666"
           rx="1.3257999"
           ry="1.3257999"
           height="3.5355"
           width="2.6517"
           y="418.48999"
           x="179.49001" />
        <rect
           id="rect4968"
           style="fill:#666666"
           rx="1.3257999"
           ry="1.3257999"
           height="3.5355"
           width="2.6517"
           y="418.48999"
           x="175.42" />
        <rect
           id="rect4970"
           style="fill:#666666"
           rx="1.3257999"
           ry="1.3257999"
           height="3.5355"
           width="2.6517"
           y="418.48999"
           x="171.35001" />
        <rect
           id="rect4972"
           style="fill:#666666"
           rx="1.3257999"
           ry="1.3257999"
           height="3.5355"
           width="2.6517"
           y="418.48999"
           x="167.27" />
        <rect
           id="rect4974"
           style="fill:#666666"
           rx="1.3257999"
           ry="1.3257999"
           height="3.5355"
           width="2.6517"
           y="418.48999"
           x="163.2" />
        <rect
           id="rect4976"
           style="fill:#666666"
           rx="1.3257999"
           ry="1.3257999"
           height="3.5355"
           width="2.6517"
           y="418.48999"
           x="159.13" />
        <rect
           id="rect4978"
           style="fill:#666666"
           rx="1.3257999"
           ry="1.3257999"
           height="3.5355"
           width="2.6517"
           y="418.48999"
           x="155.06" />
        <rect
           id="rect4980"
           style="fill:#666666"
           rx="1.3257999"
           ry="1.3257999"
           height="3.5355"
           width="2.6517"
           y="418.48999"
           x="203.92" />
      </g>
      <rect
         id="rect7186"
         style="fill:none;stroke:#000000;stroke-width:0.25321999"
         rx="1.3257999"
         ry="1.3257999"
         height="10.761"
         width="7.9039001"
         y="396.98001"
         x="246.75999" />
      <rect
         id="rect7696"
         style="fill:none;stroke:#000000;stroke-width:0.25321999"
         rx="1.3257999"
         ry="1.3257999"
         height="10.761"
         width="7.9039001"
         y="417.70001"
         x="212.48" />
      <rect
         id="rect7698"
         style="fill:none;stroke:#000000;stroke-width:0.25321999"
         rx="1.3257999"
         ry="1.3257999"
         height="10.761"
         width="7.9039001"
         y="415.20001"
         x="474.62" />
      <path
         id="path7702"
         d="m 130.71,447.9 v 3.75 c 4.3784,1.7636 12.113,1.2897 18.393,1.7857 l 0.17857,-4.1071 c -8.2902,0.14137 -14.328,-0.37981 -18.571,-1.4286 z"
         sodipodi:nodetypes="ccccc"
         style="fill:#333333"
         inkscape:connector-curvature="0" />
      <g
         id="g7916">
        <path
           id="path4616"
           style="fill:#333333"
           inkscape:connector-curvature="0"
           d="m 294.2,444.24 7.2321,4.1071 -7.3214,3.125 z" />
        <path
           id="rect4613"
           sodipodi:nodetypes="ccccc"
           style="fill:url(#linearGradient1007)"
           inkscape:connector-curvature="0"
           d="m 288.74,440.67 5.9821,0.71429 v 12.857 l -5.9821,0.80357 z" />
        <path
           id="path4611"
           sodipodi:nodetypes="ccsccsc"
           style="fill:url(#linearGradient1009)"
           inkscape:connector-curvature="0"
           d="m 246.48,433.67 v 26.769 c 0,0 7.3696,2.9385 18.096,2.7626 10.213,-0.16752 24.33,-2.7626 24.33,-2.7626 v -24.244 c 0,0 -15.038,-4.1605 -27.159,-3.6555 -12.122,0.50507 -15.267,1.1301 -15.267,1.1301 z" />
        <path
           id="path7708"
           style="fill:none;stroke:url(#linearGradient1011);stroke-width:0.40248001"
           inkscape:connector-curvature="0"
           d="m 263.65,432.68 v 30.537" />
        <path
           id="rect7712"
           sodipodi:nodetypes="sccssss"
           style="fill:url(#linearGradient1013)"
           inkscape:connector-curvature="0"
           d="m 246.35,433.68 c 0.34977,-0.0473 0.63135,-0.0776 0.63135,-0.0776 v 27.03 c 0,0 -0.29736,-0.0994 -0.63135,-0.22567 -0.32717,-0.12369 -0.63135,-0.58743 -0.63135,-1.3171 v -24.093 c 0,-0.72967 0.28474,-1.2702 0.63135,-1.3171 z" />
      </g>
      <g
         id="g7923"
         transform="translate(55.714,-9.6429)">
        <path
           id="path7925"
           d="m 294.2,444.24 7.2321,4.1071 -7.3214,3.125 z"
           style="fill:#333333"
           inkscape:connector-curvature="0" />
        <path
           id="path7927"
           d="m 288.74,440.67 5.9821,0.71429 v 12.857 l -5.9821,0.80357 z"
           sodipodi:nodetypes="ccccc"
           style="fill:url(#linearGradient7911)"
           inkscape:connector-curvature="0" />
        <path
           id="path7929"
           d="m 246.48,433.67 v 26.769 c 0,0 7.3696,2.9385 18.096,2.7626 10.213,-0.16752 24.33,-2.7626 24.33,-2.7626 v -24.244 c 0,0 -15.038,-4.1605 -27.159,-3.6555 -12.122,0.50507 -15.267,1.1301 -15.267,1.1301 z"
           sodipodi:nodetypes="ccsccsc"
           style="fill:url(#linearGradient7908)"
           inkscape:connector-curvature="0" />
        <path
           id="path7931"
           d="m 263.65,432.68 v 30.537"
           style="fill:none;stroke:url(#linearGradient7730);stroke-width:0.40248001"
           inkscape:connector-curvature="0" />
        <path
           id="path7933"
           d="m 246.35,433.68 c 0.34977,-0.0473 0.63135,-0.0776 0.63135,-0.0776 v 27.03 c 0,0 -0.29736,-0.0994 -0.63135,-0.22567 -0.32717,-0.12369 -0.63135,-0.58743 -0.63135,-1.3171 v -24.093 c 0,-0.72967 0.28474,-1.2702 0.63135,-1.3171 z"
           sodipodi:nodetypes="sccssss"
           style="fill:url(#linearGradient7753)"
           inkscape:connector-curvature="0" />
      </g>
      <rect
         id="rect7943"
         style="fill:none;stroke:#000000;stroke-width:0.25321999"
         rx="1.3257999"
         ry="1.3257999"
         height="10.761"
         width="7.9039001"
         y="417.70001"
         x="142.3" />
      <path
         id="path4605"
         d="m 512.15,412.94 c 0,0 63.135,-9.5964 68.185,-9.5964 h 28.789 l -29.8,11.112 c 0,0 -52.528,2.5254 -58.084,2.0203 -5.5558,-0.50507 -9.0914,-3.5355 -9.0914,-3.5355 z"
         style="fill:#43484c"
         inkscape:connector-curvature="0" />
      <path
         id="path7973"
         d="m 609.1,403.32 c -7.1288,0.76625 -32.125,1.7085 -31.116,-0.13393 1.0085,-1.8424 22.034,-0.53389 31.116,0.13393 z"
         sodipodi:nodetypes="czc"
         style="fill:#b3b3b3"
         inkscape:connector-curvature="0" />
      <path
         id="path7976"
         style="fill:url(#linearGradient7984)"
         d="M 402.61,80.991 C 418.944,62.584 435.18,43.98 451.666,25.875 l 50.63,-17.931 -19.64,44.636 z"
         sodipodi:nodetypes="ccccc"
         transform="translate(100.3,291.75)"
         inkscape:connector-curvature="0" />
    </g>
  </g>
  <metadata
     id="metadata199">
    <rdf:RDF>
      <cc:Work>
        <dc:format>image/svg+xml</dc:format>
        <dc:type
           rdf:resource="http://purl.org/dc/dcmitype/StillImage" />
        <cc:license
           rdf:resource="http://creativecommons.org/licenses/publicdomain/" />
        <dc:publisher>
          <cc:Agent
             rdf:about="http://openclipart.org/">
            <dc:title>Openclipart</dc:title>
          </cc:Agent>
        </dc:publisher>
        <dc:title>airliner</dc:title>
        <dc:date>2012-03-23T10:10:12</dc:date>
        <dc:description>Airbus A380 in profile</dc:description>
        <dc:source>https://openclipart.org/detail/169030/airliner-by-sagism</dc:source>
        <dc:creator>
          <cc:Agent>
            <dc:title>sagism</dc:title>
          </cc:Agent>
        </dc:creator>
        <dc:subject>
          <rdf:Bag>
            <rdf:li>A380</rdf:li>
            <rdf:li>airbus</rdf:li>
            <rdf:li>airline</rdf:li>
            <rdf:li>airliner</rdf:li>
            <rdf:li>airplane</rdf:li>
            <rdf:li>flight</rdf:li>
            <rdf:li>transportation</rdf:li>
          </rdf:Bag>
        </dc:subject>
      </cc:Work>
      <cc:License
         rdf:about="http://creativecommons.org/licenses/publicdomain/">
        <cc:permits
           rdf:resource="http://creativecommons.org/ns#Reproduction" />
        <cc:permits
           rdf:resource="http://creativecommons.org/ns#Distribution" />
        <cc:permits
           rdf:resource="http://creativecommons.org/ns#DerivativeWorks" />
      </cc:License>
    </rdf:RDF>
  </metadata>
</svg>
